<svg id="Capa_1" enable-background="new 0 0 512 512" height="512" viewBox="0 0 512 512" width="512" xmlns="http://www.w3.org/2000/svg"><g><g><g><path d="m322.948 223.249c-8.286 0-15.002-6.717-15.002-15.002v-75.225c0-8.286 6.717-15.002 15.002-15.002s15.002 6.717 15.002 15.002v75.225c.001 8.285-6.716 15.002-15.002 15.002z" fill="#17324d"/></g><g><g><path d="m448.969 223.249c-8.286 0-15.002-6.717-15.002-15.002v-75.225c0-8.286 6.717-15.002 15.002-15.002s15.002 6.717 15.002 15.002v75.225c0 8.285-6.717 15.002-15.002 15.002z" fill="#17324d"/></g></g></g><path d="m256 396.17 15 53.83-15 62h-245.98c-5.52 0-10-4.48-10-10v-105.83l128.98-36.837z" fill="#284866"/><path d="m511.98 396.17v105.83c0 5.52-4.48 10-10 10h-245.98v-115.83l129-32.17z" fill="#17324d"/><path d="m256 208.25 14.5 88.75-14.5 99.17h-255.98v-177.92c0-5.53 4.48-10 10-10z" fill="#9ddff6"/><path d="m511.98 218.25v177.92h-255.98v-187.92h245.98c5.52 0 10 4.47 10 10z" fill="#8bb9ff"/><g><path d="m180.925 317.206h-91.015c-8.286 0-15.002-6.717-15.002-15.002v-165.865c0-13.787 11.217-25.004 25.004-25.004h71.012c13.787 0 25.004 11.217 25.004 25.004v165.865c0 8.286-6.717 15.002-15.003 15.002z" fill="#ecf2ff"/></g><g><path d="m486.975 148.024h-202.033c-13.787 0-25.004-11.217-25.004-25.004v-98.016c0-13.787 11.217-25.004 25.004-25.004h202.033c13.787 0 25.004 11.217 25.004 25.004v98.016c0 13.787-11.217 25.004-25.004 25.004z" fill="#d9e5ff"/></g><g><path d="m196.303 317.206h-121.77c-8.286 0-15.002-6.717-15.002-15.002s6.717-15.002 15.002-15.002h121.77c8.286 0 15.002 6.717 15.002 15.002s-6.717 15.002-15.002 15.002z" fill="#17324d"/></g><g><g><path d="m293.444 284.201h-11.502c-8.286 0-15.002-6.717-15.002-15.002s6.717-15.002 15.002-15.002h11.502c8.286 0 15.002 6.717 15.002 15.002s-6.717 15.002-15.002 15.002z" fill="#17324d"/></g><g><path d="m293.444 350.22h-11.502c-8.286 0-15.002-6.717-15.002-15.002s6.717-15.002 15.002-15.002h11.502c8.286 0 15.002 6.717 15.002 15.002s-6.717 15.002-15.002 15.002z" fill="#17324d"/></g></g><g><g><path d="m364.955 284.201h-11.502c-8.286 0-15.002-6.717-15.002-15.002s6.717-15.002 15.002-15.002h11.502c8.286 0 15.002 6.717 15.002 15.002s-6.716 15.002-15.002 15.002z" fill="#17324d"/></g><g><path d="m364.955 350.22h-11.502c-8.286 0-15.002-6.717-15.002-15.002s6.717-15.002 15.002-15.002h11.502c8.286 0 15.002 6.717 15.002 15.002s-6.716 15.002-15.002 15.002z" fill="#17324d"/></g></g><g><g><path d="m436.467 284.201h-11.502c-8.286 0-15.002-6.717-15.002-15.002s6.717-15.002 15.002-15.002h11.502c8.286 0 15.002 6.717 15.002 15.002s-6.717 15.002-15.002 15.002z" fill="#17324d"/></g><g><path d="m436.467 350.22h-11.502c-8.286 0-15.002-6.717-15.002-15.002s6.717-15.002 15.002-15.002h11.502c8.286 0 15.002 6.717 15.002 15.002s-6.717 15.002-15.002 15.002z" fill="#17324d"/></g></g></g></svg>