<svg id="Capa_1" enable-background="new 0 0 512 512" height="512" viewBox="0 0 512 512" width="512" xmlns="http://www.w3.org/2000/svg"><g><path d="m256 0 25 193-25 319h-194.45c-5.86 0-10.62-4.76-10.62-10.62v-490.76c0-5.86 4.76-10.62 10.62-10.62z" fill="#9ddff6"/><path d="m461.07 10.62v490.76c0 5.86-4.76 10.62-10.62 10.62h-194.45v-512h194.45c5.86 0 10.62 4.76 10.62 10.62z" fill="#8bb9ff"/><path d="m256 64.8 12 43.2-12 44.96h-124.08c-2.93 0-5.31-2.38-5.31-5.31v-77.54c0-2.94 2.38-5.31 5.31-5.31z" fill="#ecf2ff"/><path d="m385.39 70.11v77.54c0 2.93-2.38 5.31-5.31 5.31h-124.08v-88.16h124.08c2.93 0 5.31 2.37 5.31 5.31z" fill="#d9e5ff"/><path d="m256 329.295 19 53.039-19 65.666h-119.392c-5.523 0-10-4.477-10-10v-108.705l64.392-29.628z" fill="#fc6"/><path d="m385.392 329.295v108.705c0 5.523-4.477 10-10 10h-119.392v-118.705l66.333-26.961z" fill="#ffa64d"/><path d="m256 217.409 20.333 56.925-20.333 54.961h-129.392v-101.886c0-5.523 4.477-10 10-10z" fill="#fe9"/><path d="m385.392 227.409v101.886h-129.392v-111.886h119.392c5.522 0 10 4.477 10 10z" fill="#fc6"/></g></svg>