<svg id="Capa_1" enable-background="new 0 0 512 512" height="512" viewBox="0 0 512 512" width="512" xmlns="http://www.w3.org/2000/svg"><g><g><path d="m114.42 41.57c-13.79 0-25 11.21-25 25v59.43l9.46 29.42-9.45 32.29h-.01v126.58c0 13.79 11.21 25 25 25h99.16l27.42-184.957-27.42-112.763z" fill="#ecf2ff"/></g><g><path d="m512 123.67v-57.1c0-13.79-11.21-25-25-25h-273.42v297.72h273.42c13.79 0 25-11.21 25-25v-126.54l-.02-.04-13.98-32.29 13.66-30.99z" fill="#d9e5ff"/></g><path d="m89.42 124.43h124.16l13.42 29.237-13.42 34.043h-124.16z" fill="#284866"/><path d="m213.58 124.43h298.42v63.28h-298.42z" fill="#17324d"/><path d="m213.58 172.71 30.087 153.623-30.087 144.097h-188.58c-13.79 0-25-11.21-25-25v-247.72c0-13.79 11.21-25 25-25z" fill="#9ddff6"/><path d="m422.58 187.71v257.72c0 13.79-11.21 25-25 25h-184v-297.72h194c8.29 0 15 6.71 15 15z" fill="#8bb9ff"/><g fill="#ecf2ff"><path d="m156.794 309.024v-44.137c0-13.785-11.215-25-25-25h-44.137c-13.785 0-25 11.215-25 25v44.137c0 13.785 11.215 25 25 25h44.137c13.785 0 25-11.215 25-25z"/><path d="m102.872 373.25h-20.598c-8.284 0-15 6.716-15 15s6.716 15 15 15h20.597c8.284 0 15-6.716 15-15s-6.715-15-14.999-15z"/><path d="m183.556 373.25h-20.597c-8.284 0-15 6.716-15 15s6.716 15 15 15h20.597c8.284 0 15-6.716 15-15s-6.716-15-15-15z"/></g><path d="m264.241 373.25h-20.598c-8.284 0-15 6.716-15 15s6.716 15 15 15h20.598c8.284 0 15-6.716 15-15s-6.716-15-15-15z" fill="#d9e5ff"/><path d="m344.926 373.25h-20.598c-8.284 0-15 6.716-15 15s6.716 15 15 15h20.598c8.284 0 15-6.716 15-15s-6.716-15-15-15z" fill="#d9e5ff"/></g></svg>