<svg id="Capa_1" enable-background="new 0 0 512 512" height="512" viewBox="0 0 512 512" width="512" xmlns="http://www.w3.org/2000/svg"><g><path d="m256 0 35 216.333-35 164.297-87 23.703-81.9-23.703v-348.76c0-17.64 14.24-31.87 31.87-31.87z" fill="#ecf2ff"/><path d="m424.9 31.87v348.76h-168.9v-380.63h137.03c17.63 0 31.87 14.23 31.87 31.87z" fill="#d9e5ff"/><path d="m256 380.63 20.333 61.037-20.333 70.333h-137.03c-17.63 0-31.87-14.23-31.87-31.87v-99.5z" fill="#9ddff6"/><path d="m424.9 380.63v99.5c0 17.64-14.24 31.87-31.87 31.87h-137.03v-131.37z" fill="#8bb9ff"/><g><path d="m256 431.32 9 15.68-9 14.32h-22.84c-8.28 0-15-6.72-15-15 0-8.29 6.72-15 15-15z" fill="#284866"/></g><g><path d="m293.84 446.32c0 8.28-6.72 15-15 15h-22.84v-30h22.84c8.28 0 15 6.71 15 15z" fill="#17324d"/></g><g><path d="m229.04 82.76c0-2.02 1.65-3.67 3.68-3.67h23.28l8.333-15.423-8.333-14.577h-23.28c-18.57 0-33.68 15.1-33.68 33.67v65.24c0 8.29 6.72 15 15 15h41.96v-30h-26.96z" fill="#e62e6b"/></g><g><path d="m279.28 49.09h-23.28v30h23.28c2.03 0 3.68 1.65 3.68 3.67v50.24h-26.96v30h41.96c8.28 0 15-6.71 15-15v-65.24c0-18.57-15.11-33.67-33.68-33.67z" fill="#b32453"/></g><path d="m256 132.79 22.333 77.543-22.333 121.217h-72.24c-13.25 0-24.21-9.95-25.5-23.13l-14.42-147.51c-.7-7.18 1.68-14.37 6.52-19.71 4.85-5.34 11.77-8.41 18.98-8.41z" fill="#f66"/><path d="m368.16 160.88-14.24 147.51c-1.27 13.2-12.23 23.16-25.5 23.16h-72.42v-198.76h86.66c7.21 0 14.12 3.06 18.97 8.4 4.84 5.33 7.23 12.51 6.53 19.69z" fill="#e62e6b"/></g></svg>