<svg id="Capa_1" enable-background="new 0 0 512 512" height="512" viewBox="0 0 512 512" width="512" xmlns="http://www.w3.org/2000/svg"><g><path d="m256 383.038 31 71.451-31 57.511c-43.181.01-86.561-4.95-120.292-15.13-25.69-7.75-58.711-22.47-58.711-49.351 0-26.871 33-41.591 58.711-49.351 17.05-5.14 36.981-9.07 58.641-11.63 19.43-2.3 40.261-3.5 61.651-3.5z" fill="#ecf2ff"/><path d="m435.003 447.519c0 8.12-3.33 20.17-19.18 31.47-30.431 21.711-94.892 32.991-159.823 33.011v-128.962c21.4 0 42.221 1.2 61.661 3.5 21.66 2.56 41.591 6.49 58.631 11.63 25.69 7.75 58.711 22.471 58.711 49.351z" fill="#d9e5ff"/><path d="m256 .003 18 169.649-18 279.007c-13.41 0-25.77-6.72-33.06-17.98l-28.59-44.141-88.751-136.982c-.29-.45-.55-.91-.79-1.39-26.75-52.891-24.49-114.892 6.06-165.852 30.1-50.201 82.791-80.961 140.952-82.271 1.399-.03 2.789-.05 4.179-.04z" fill="#9ddff6"/><path d="m407.202 248.166c-.24.48-.5.94-.79 1.39l-88.751 136.982-28.59 44.141c-7.29 11.26-19.65 17.98-33.07 17.98v-448.656c58.591.07 111.822 29.36 143.092 78.961 32.55 51.63 35.58 114.881 8.109 169.202z" fill="#8bb9ff"/><g><path d="m256 90.504 11.667-11.52-11.667-18.481h-17.57c-16.05 0-29.1 13.05-29.1 29.09v49.241c0 8.29 6.72 15 15 15h31.67v-30h-16.67v-33.33z" fill="#fc6"/></g><g><path d="m273.57 60.503h-17.57v30h16.67v33.33h-16.67v30h31.671c8.28 0 15-6.71 15-15v-49.239c0-16.04-13.051-29.091-29.101-29.091z" fill="#ffa64d"/></g><path d="m256 123.844 15.334 54.807-15.334 88.835h-53.011c-12.67 0-23.27-9.49-24.66-22.08l-10.62-96.111c-.01-.07-.02-.13-.02-.19-.63-6.45 1.5-12.9 5.85-17.7 4.36-4.8 10.57-7.56 17.05-7.56h65.411z" fill="#fe9"/><path d="m344.321 149.075c-.01.06-.02.12-.02.19l-10.49 96.111c-1.38 12.6-11.98 22.11-24.66 22.11h-53.151v-143.642h65.411c6.47 0 12.68 2.75 17.03 7.54 4.36 4.8 6.5 11.241 5.88 17.691z" fill="#fc6"/></g></svg>