<svg id="Capa_1" enable-background="new 0 0 512 512" height="512" viewBox="0 0 512 512" width="512" xmlns="http://www.w3.org/2000/svg"><g><path d="m35.935 152.947.26 13.19c0 30.751-6.2 61.192-18.241 89.503l-12.34 29.041c-19.491 45.821 14.16 96.663 63.972 96.663h148.815l12.08-163.015-12.08-64.002v-24.781z" fill="#9ddff6"/><path d="m367.236 381.344h-148.835v-251.798l182.736 23.401v13.9c0 30.301 6.02 60.292 17.711 88.243l12.53 29.971c19.14 45.781-14.511 96.283-64.142 96.283z" fill="#8bb9ff"/><ellipse cx="182.17" cy="36.39" fill="#fe9" rx="36.251" ry="36.235"/><ellipse cx="254.653" cy="36.39" fill="#fc6" rx="36.251" ry="36.235"/><path d="m218.401 72.654 12.08 40.671-12.08 39.621h-182.466v-59.451c0-11.51 9.33-20.84 20.841-20.84h161.625z" fill="#fc6"/><path d="m401.137 93.495v59.452h-182.736v-80.293h161.895c11.51 0 20.841 9.33 20.841 20.841z" fill="#ffa64d"/><path d="m366.635 221.106c-80.152 0-145.364 65.212-145.364 145.374 0 80.153 65.212 145.365 145.364 145.365l14.601-150.941z" fill="#fe9"/><g fill="#fc6"><path d="m512 366.48c0 80.153-65.212 145.365-145.365 145.365v-290.739c80.153 0 145.365 65.212 145.365 145.374z"/><path d="m355.535 334.849c-.49 2.61.12 4.68.76 5.18 2.62 2.06 6.25 4.04 10.34 5.9l10.6 18.641-10.6 13.74c-10.68-3.99-21.111-8.61-28.861-14.68-9.77-7.66-14.26-20.821-11.72-34.331 2.66-14.081 12.27-25.371 25.241-29.821v-2.42c0-8.4 6.9-15.18 15.34-14.99v45.411c-1.96-.25-3.78-.2-5.35.27-4.34 1.31-5.49 5.77-5.75 7.1z"/><path d="m365.845 406.181c.27 0 .53-.01.79-.02l9.6 23.411-9.6 21.321c-.35.01-.7.01-1.06-.01-8.07-.38-14.28-7.33-14.28-15.401v-.18c-7.33-1.18-13.94-3.82-22.351-9.32-6.93-4.53-8.88-13.83-4.34-20.761 4.53-6.94 13.83-8.88 20.76-4.34 7.571 4.951 10.231 5.37 20.481 5.3z"/></g><path d="m382.256 333.359c-4.84-2.63-10.66-5.23-15.621-5.88v-45.411c.13 0 .26 0 .39.01 8.07.38 14.27 7.33 14.27 15.4v1.3c3.68 1.07 10.05 4.57 16.11 8.28 4.72 2.9 7.23 7.89 7.23 12.95 0 3.59-1.27 7.22-3.91 10.15-4.689 5.191-12.319 6.532-18.469 3.201z" fill="#ffa64d"/><path d="m410.507 398.351c-2.45 14.551-12.88 29.291-29.211 35.171v2.38c0 8.17-6.53 14.82-14.661 14.99v-44.732c8.41-.44 13.28-6.84 14.28-12.79.72-4.28-.08-9.98-8.01-12.78-2.09-.74-4.18-1.49-6.27-2.28v-32.38c5.05 2.31 10.81 4.45 16.271 6.38 19.951 7.05 31.041 25.551 27.601 46.041z" fill="#ffa64d"/></g></svg>