<svg id="Capa_1" enable-background="new 0 0 512 512" height="512" viewBox="0 0 512 512" width="512" xmlns="http://www.w3.org/2000/svg"><g><g><path d="m285 407.1 7.5 14.9-7.5 15.1h-175.06c-19.28 0-34.97-15.69-34.97-34.97v-50.93c0-19.29 15.69-34.97 34.97-34.97h37.02c8.29 0 15 6.71 15 15 0 8.28-6.7 14.99-14.99 15h-37.03c-2.74 0-4.97 2.23-4.97 4.97v50.93c0 2.74 2.23 4.97 4.97 4.97z" fill="#284866"/></g><g><path d="m495.94 422.1c0 8.29-6.71 15-15 15h-195.94v-30h195.94c8.29 0 15 6.72 15 15z" fill="#17324d"/></g><path d="m285 115.5 13.5 116-13.5 114.73h-138.04c-7.21 0-13.39-5.13-14.73-12.21l-3.37-17.79-5.1-26.91 4.24-16.07-9.92-13.93-10.78-56.91 2.867-15.243-8.547-14.757-7.37-38.9-21.81-99.6c-.5-2.27-2.54-3.91-4.86-3.91h-36.52c-8.29 0-15-6.72-15-15s6.71-15 15-15h36.52c16.31 0 30.67 11.56 34.16 27.49l19.28 88.01z" fill="#9ddff6"/><path d="m495.94 130.5v41.833l-8.607 15 8.607 14.333v57.667l-10.94 14.667 10.94 14.667v42.563c0 8.28-6.71 15-15 15h-195.94v-230.73h195.94c8.29 0 15 6.71 15 15z" fill="#8bb9ff"/><circle cx="190.917" cy="459.541" fill="#9ddff6" r="52.459"/><path d="m285 172.41 6 16.09-6 13.91h-177.7l-5.68-30z" fill="#284866"/><path d="m285 172.41h210.94v30h-210.94z" fill="#17324d"/><path d="m285 259.32 6 13.18-6 16.82h-161.24l-5.68-30z" fill="#284866"/><path d="m285 259.32h210.94v30h-210.94z" fill="#17324d"/><path d="m378.995 407.082c-28.926 0-52.459 23.533-52.459 52.459s23.534 52.459 52.459 52.459 52.458-23.533 52.458-52.459-23.532-52.459-52.458-52.459z" fill="#8bb9ff"/></g></svg>