<svg id="Capa_1" enable-background="new 0 0 512 512" height="512" viewBox="0 0 512 512" width="512" xmlns="http://www.w3.org/2000/svg"><g><g><path d="m25 0c-13.79 0-25 11.21-25 25v462c0 13.79 11.21 25 25 25h231l28-347-28-140.667-114.812-24.333z" fill="#ecf2ff"/></g><g><path d="m487 0-231 25.667v486.333h231c13.79 0 25-11.21 25-25v-462c0-13.771-11.126-25-25-25z" fill="#d9e5ff"/></g><g><path d="m118.821 91.333h-38.667c-8.284 0-15-6.716-15-15s6.716-15 15-15h38.667c8.284 0 15 6.716 15 15s-6.716 15-15 15z" fill="#284866"/></g><g><path d="m300.056 364.936-42.883-42.883c-5.858-5.858-5.858-15.355 0-21.213s15.356-5.858 21.213 0l42.883 42.883c5.858 5.858 5.858 15.355 0 21.213-5.858 5.857-15.356 5.858-21.213 0z" fill="#17324d"/></g><path d="m141.14 0h114.86l25 49-25 49.35h-44.24c-6.69 0-12.89-3.47-16.39-9.17l-45.58-74.18z" fill="#284866"/><path d="m512 25v73.35h-256v-98.35h231c13.882 0 25 11.23 25 25z" fill="#17324d"/><g><path d="m321.823 429.453-43.143-43.142c-5.854-5.853-5.858-15.356 0-21.213l42.751-42.75c5.857-5.857 15.355-5.858 21.213 0l43.142 43.142c17.678 17.677 17.678 46.285 0 63.964-17.676 17.676-46.286 17.677-63.963-.001z" fill="#284866"/></g><g><path d="m140.84 184.5c-37.15 37.16-37.15 97.61 0 134.76 31.222 31.223 78.83 36.142 115.16 15.06l19-82.32-19-82.56c-36.45-21.12-84-16.1-115.16 15.06z" fill="#9ddff6"/></g><g><path d="m275.59 184.5c-5.99-5.99-12.58-11.02-19.59-15.06v164.88c7-4.05 13.6-9.08 19.59-15.06 17.97-17.97 27.87-41.9 27.87-67.38s-9.9-49.4-27.87-67.38z" fill="#8bb9ff"/></g></g></svg>