<svg id="Capa_1" enable-background="new 0 0 512 512" height="512" viewBox="0 0 512 512" width="512" xmlns="http://www.w3.org/2000/svg"><g><path d="m256 84 17 155-17 189h-221c-19.3 0-35-15.7-35-35v-274c0-19.3 15.7-35 35-35z" fill="#ecf2ff"/><path d="m512 119v274c0 19.3-15.7 35-35 35h-221v-344h221c19.3 0 35 15.7 35 35z" fill="#d9e5ff"/><path d="m106 157c-8.284 0-15 6.716-15 15v168c0 8.284 6.716 15 15 15s15-6.716 15-15v-168c0-8.284-6.716-15-15-15z" fill="#284866"/><path d="m181 157c-8.284 0-15 6.716-15 15v100c0 8.284 6.716 15 15 15s15-6.716 15-15v-100c0-8.284-6.716-15-15-15z" fill="#284866"/><g fill="#17324d"><path d="m331 157c-8.284 0-15 6.716-15 15v100c0 8.284 6.716 15 15 15s15-6.716 15-15v-100c0-8.284-6.716-15-15-15z"/><path d="m331 317c-8.284 0-15 6.716-15 15v8c0 8.284 6.716 15 15 15s15-6.716 15-15v-8c0-8.284-6.716-15-15-15z"/><path d="m406 157c-8.284 0-15 6.716-15 15v168c0 8.284 6.716 15 15 15s15-6.716 15-15v-168c0-8.284-6.716-15-15-15z"/></g><path d="m181 317c-8.284 0-15 6.716-15 15v8c0 8.284 6.716 15 15 15s15-6.716 15-15v-8c0-8.284-6.716-15-15-15z" fill="#284866"/><path d="m256 157 9.75 56-9.75 74c-8.28 0-15-6.72-15-15v-100c0-8.28 6.72-15 15-15z" fill="#284866"/><path d="m271 172v100c0 8.28-6.72 15-15 15v-130c8.28 0 15 6.72 15 15z" fill="#17324d"/><path d="m256 317 6 17.75-6 20.25c-8.28 0-15-6.72-15-15v-8c0-8.28 6.72-15 15-15z" fill="#284866"/><path d="m271 332v8c0 8.28-6.72 15-15 15v-38c8.28 0 15 6.72 15 15z" fill="#17324d"/></g></svg>