<svg id="Capa_1" enable-background="new 0 0 512 512" height="512" viewBox="0 0 512 512" width="512" xmlns="http://www.w3.org/2000/svg"><g><path d="m211 81.66 26 164.673-26 184.007h-186c-13.79 0-25-11.21-25-25v-298.68c0-13.79 11.21-25 25-25z" fill="#fe9"/><path d="m512 106.66v298.68c0 13.79-11.21 25-25 25h-276v-348.68h276c13.79 0 25 11.21 25 25z" fill="#fc6"/><g fill="#8bb9ff"><path d="m75.083 198h75.167c8.284 0 15-6.716 15-15s-6.716-15-15-15h-75.167c-8.284 0-15 6.716-15 15s6.716 15 15 15z"/><path d="m150.25 241h-75.167c-8.284 0-15 6.716-15 15s6.716 15 15 15h75.167c8.284 0 15-6.716 15-15s-6.716-15-15-15z"/><path d="m150.25 314h-75.167c-8.284 0-15 6.716-15 15s6.716 15 15 15h75.167c8.284 0 15-6.716 15-15s-6.716-15-15-15z"/></g><g fill="#f66"><path d="m392.277 162.006c-7.638-3.204-16.43.388-19.636 8.027l-65.87 156.954c-3.206 7.639.388 16.43 8.027 19.636 1.896.795 3.863 1.172 5.798 1.172 5.861 0 11.428-3.457 13.838-9.199l65.87-156.954c3.205-7.638-.388-16.43-8.027-19.636z"/><path d="m344.933 202.344c0-26.92-19.785-48.821-44.105-48.821s-44.105 21.901-44.105 48.821 19.785 48.821 44.105 48.821 44.105-21.901 44.105-48.821zm-44.105 18.821c-7.646 0-14.105-8.619-14.105-18.821s6.459-18.821 14.105-18.821 14.105 8.619 14.105 18.821-6.46 18.821-14.105 18.821z"/><path d="m407.369 260.834c-24.32 0-44.105 21.901-44.105 48.821s19.785 48.821 44.105 48.821 44.105-21.901 44.105-48.821-19.786-48.821-44.105-48.821zm0 67.643c-7.646 0-14.105-8.619-14.105-18.821s6.459-18.821 14.105-18.821 14.105 8.619 14.105 18.821-6.46 18.821-14.105 18.821z"/></g></g></svg>