<svg id="Capa_1" enable-background="new 0 0 512 512" height="512" viewBox="0 0 512 512" width="512" xmlns="http://www.w3.org/2000/svg"><g><g><path d="m35.04 118.75c-19.3 0-35 15.7-35 35v323.25c0 19.3 15.7 35 35 35h160.72l18.24-241.5-18.24-151.75z" fill="#f66"/></g><g><path d="m356.48 118.75h-160.72v393.25h160.72c19.3 0 35-15.7 35-35v-323.25c0-19.3-15.7-35-35-35z" fill="#e62e6b"/></g><g><path d="m195.76 0 8.24 16.5-8.24 13.5h-42.49c-8.27 0-15 6.73-15 14.99v147.98c0 8.28-6.71 15-15 15-8.28 0-15-6.72-15-15v-147.98c0-24.81 20.19-44.99 45-44.99z" fill="#e62e6b"/></g><g><path d="m283.25 44.99v147.98c0 8.28-6.72 15-15 15-8.29 0-15-6.72-15-15v-147.98c0-8.26-6.73-14.99-15-14.99h-42.49v-30h42.49c24.81 0 45 20.18 45 44.99z" fill="#b32453"/></g><g><path d="m230.66 257.96c-19.29 0-34.99 15.69-34.99 34.99v183.97c0 19.3 15.7 35 34.99 35h123.15l33.19-142.92-33.19-111.04z" fill="#fe9"/></g><g><path d="m476.96 257.96h-123.15v253.96h123.15c19.3 0 35-15.7 35-35v-183.97c0-19.3-15.7-34.99-35-34.99z" fill="#fc6"/></g><g><path d="m353.81 397.43 8.94 16.32-8.94 13.68h-36.99c-24.81 0-45-20.18-45-44.99v-44.5c0-8.28 6.72-15 15-15 8.29 0 15 6.72 15 15v44.5c0 8.26 6.73 14.99 15 14.99z" fill="#fc6"/></g><g><path d="m435.8 337.94v44.5c0 24.81-20.18 44.99-44.99 44.99h-37v-30h37c8.26 0 14.99-6.73 14.99-14.99v-44.5c0-8.28 6.72-15 15-15 8.29 0 15 6.72 15 15z" fill="#ffa64d"/></g></g></svg>