<svg id="Capa_1" enable-background="new 0 0 512 512" height="512" viewBox="0 0 512 512" width="512" xmlns="http://www.w3.org/2000/svg"><g><path d="m256 15.406 30 213.594-30 283h-221c-19.3 0-35-15.7-35-35v-442c0-19.3 15.7-35 35-35h120z" fill="#fe9"/><path d="m512 35v442c0 19.3-15.7 35-35 35h-221v-496.667l100.833-15.333h120.167c19.3 0 35 15.7 35 35z" fill="#fc6"/><path d="m256 0 15 59-15 59.68-80.3 32.24c-9.893 3.962-20.59-3.349-20.59-13.92v-137z" fill="#9ddff6"/><path d="m356.89 0v137c0 10.583-10.706 17.874-20.59 13.92l-80.3-32.24v-118.68z" fill="#8bb9ff"/><g><g><g><path d="m210.546 315h-119.092c-8.284 0-15-6.716-15-15s6.716-15 15-15h119.092c8.284 0 15 6.716 15 15s-6.716 15-15 15z" fill="#9ddff6"/></g><g><path d="m171.454 394.667h-80c-8.284 0-15-6.716-15-15s6.716-15 15-15h80c8.284 0 15 6.716 15 15s-6.716 15-15 15z" fill="#9ddff6"/></g></g></g></g></svg>