<svg id="Capa_1" enable-background="new 0 0 512 512" height="512" viewBox="0 0 512 512" width="512" xmlns="http://www.w3.org/2000/svg"><g><path d="m256 0 19 223-19 289h-221c-19.3 0-35-15.7-35-35v-442c0-19.3 15.7-35 35-35z" fill="#ecf2ff"/><path d="m512 35v442c0 19.3-15.7 35-35 35h-221v-512h221c19.3 0 35 15.7 35 35z" fill="#d9e5ff"/><path d="m85.5 169h69c8.284 0 15-6.716 15-15v-69c0-8.284-6.716-15-15-15h-69c-8.284 0-15 6.716-15 15v69c0 8.284 6.716 15 15 15z" fill="#284866"/><path d="m426.5 70h-82c-8.284 0-15 6.716-15 15v82c0 8.284 6.716 15 15 15h82c8.284 0 15-6.716 15-15v-82c0-8.284-6.716-15-15-15z" fill="#17324d"/><path d="m167.5 330h-82c-8.284 0-15 6.716-15 15v82c0 8.284 6.716 15 15 15h82c8.284 0 15-6.716 15-15v-82c0-8.284-6.716-15-15-15z" fill="#284866"/><path d="m423.5 336h-76c-8.284 0-15 6.716-15 15v76c0 8.284 6.716 15 15 15h76c8.284 0 15-6.716 15-15v-76c0-8.284-6.716-15-15-15z" fill="#17324d"/><path d="m256 99.33 14.667 122.67-14.667 148c-8.28 0-15-6.72-15-15v-56.33h-78c-8.28 0-15-6.72-15-15 0-8.29 6.72-15 15-15h78v-91.17h-24.75c-8.28 0-15-6.72-15-15s6.72-15 15-15h24.75v-33.17c0-8.28 6.72-15 15-15z" fill="#284866"/><path d="m426.333 274.5h-69.333c-8.284 0-15 6.716-15 15s6.716 15 15 15h69.333c8.284 0 15-6.716 15-15s-6.716-15-15-15z" fill="#17324d"/><path d="m400.67 229c0 8.28-6.72 15-15 15h-114.63c0 28.04-.04 82.96-.04 111 0 8.28-6.72 15-15 15v-270.67c8.28 0 15 6.72 15 15 0 112.71.04-13.12.04 99.67h114.63c8.28 0 15 6.72 15 15z" fill="#17324d"/><path d="m85.5 236.25h61c8.284 0 15-6.716 15-15s-6.716-15-15-15h-61c-8.284 0-15 6.716-15 15s6.716 15 15 15z" fill="#284866"/></g></svg>