<svg id="Capa_1" enable-background="new 0 0 512 512" height="512" viewBox="0 0 512 512" width="512" xmlns="http://www.w3.org/2000/svg"><g><path d="m474.333 364.497h-60.732v-119.935c0-6.981 6.971-11.814 13.509-9.364l40.732 15.261c3.904 1.463 6.491 5.195 6.491 9.364z" fill="#e62e6b"/><path d="m351 359.853h-60.732v-156.93c0-6.981 6.971-11.814 13.509-9.364l40.732 15.261c3.904 1.463 6.491 5.195 6.491 9.364z" fill="#e62e6b"/><path d="m151 50.501h-125.994c-5.523 0-10 4.477-10 10v146.366h60.732v-95.634h75.262c5.523 0 10-4.477 10-10v-40.732c0-5.523-4.477-10-10-10z" fill="#f66"/><path d="m256 234.669 14 100.83-14 126h-221c-19.3 0-35-15.7-35-35v-219.63c0-8.29 6.72-15 15-15h146.47c33.32 0 65.83 13.63 89.2 37.38z" fill="#284866"/><path d="m512 326.129v100.37c0 19.3-15.7 35-35 35h-221v-226.83l47.23 48.04c17.76 18.06 42.47 28.42 67.8 28.42h125.97c8.28 0 15 6.71 15 15z" fill="#17324d"/></g></svg>