<svg id="Capa_1" enable-background="new 0 0 512.03 512.03" height="512" viewBox="0 0 512.03 512.03" width="512" xmlns="http://www.w3.org/2000/svg"><g><g><path d="m457.466 172.697c-8.284 0-15-6.716-15-15v-82c0-25.181-20.486-45.667-45.667-45.667h-180.833c-8.284 0-15-6.716-15-15s6.716-15 15-15h180.834c41.723 0 75.667 33.944 75.667 75.667v82c-.001 8.284-6.717 15-15.001 15z" fill="#8bb9ff"/></g><path d="m216.464 0 28.194 245.188-28.194 266.842h-141.97c-19.26 0-34.93-15.67-34.93-34.93v-314.03c0-9.88 4.2-19.33 11.53-25.94l141.97-128.1c6.67-6.02 15.03-9.03 23.4-9.03z" fill="#ecf2ff"/><path d="m393.374 163.07v314.03c0 19.26-15.67 34.93-34.94 34.93h-141.97v-512.03c8.37 0 16.73 3.01 23.4 9.03l141.98 128.1c7.32 6.61 11.53 16.06 11.53 25.94z" fill="#d9e5ff"/><g fill="#fc6"><path d="m202.925 192.845c3.43 2.69 8.21 5.24 13.54 7.62v32.37c-11.93-4.49-23.5-9.68-32.06-16.39-23.6-18.51-15.18-61.51 16.67-70.93v-4.58c0-8.29 6.71-15 15-15 .13 0 .26 0 .39.01l9.05 26.07-9.05 21.54c-17.08-.87-17.45 16.22-13.54 19.29z"/><path d="m215.565 270.305c.3 0 .6-.01.9-.02l13.05 24.73-13.05 22.41c-.13.01-.26.01-.39.01-8.29 0-15-6.72-15-15v-2.79c-9.11-1.15-16.81-4.06-27.11-10.8-7.44-4.86-9.13-15.21-3.24-22.24 4.91-5.86 13.56-6.83 19.97-2.67 9.09 5.91 12.66 6.46 24.87 6.37z"/><path d="m216.465 350.265 9.05 19.25-9.05 10.75h-94.5c-8.28 0-15-6.71-15-15 0-8.28 6.72-15 15-15z"/></g><path d="m325.965 365.265c0 8.29-6.71 15-15 15h-94.5v-30h94.5c8.29 0 15 6.72 15 15z" fill="#ffa64d"/><path d="m216.465 413.105 12.05 17.41-12.05 12.59h-94.5c-8.28 0-15-6.72-15-15 0-8.29 6.72-15 15-15z" fill="#fc6"/><path d="m325.965 428.105c0 8.28-6.71 15-15 15h-94.5v-30h94.5c8.29 0 15 6.71 15 15z" fill="#ffa64d"/><path d="m216.465 65.355 5.383 13.993-5.383 15.987c-.16.01-.33.01-.5.01-8.28 0-15-6.71-15-15 0-8.28 6.72-15 15-15 .17 0 .34 0 .5.01z" fill="#fc6"/><path d="m230.965 80.345c0 8.12-6.44 14.73-14.5 14.99v-29.98c8.06.26 14.5 6.88 14.5 14.99z" fill="#ffa64d"/><path d="m231.075 297.895v4.54c0 8.15-6.51 14.79-14.61 14.99v-47.14c11.2-.5 17.71-9.02 19.03-16.91.81-4.84.47-13.56-10.92-17.59-2.7-.95-5.42-1.94-8.11-2.95v-32.37c5.72 2.55 12.08 4.91 18.11 7.04 45.5 16.08 38.35 76.95-3.5 90.39z" fill="#ffa64d"/><path d="m233.525 178.485c-6.98-3.26-12.59-4.71-17.06-4.93v-47.61c8.1.2 14.61 6.83 14.61 14.99v5.16c5.33 1.37 10.42 3.22 14.95 5.24 5.7 2.53 8.83 8.03 8.83 13.65 0 3.53-1.24 7.11-3.87 10.01-4.42 4.88-11.5 6.28-17.46 3.49z" fill="#ffa64d"/></g></svg>