<svg id="Capa_1" enable-background="new 0 0 512 512" height="512" viewBox="0 0 512 512" width="512" xmlns="http://www.w3.org/2000/svg"><g><path d="m256 246.25 17 126-17 139.5h-184c-16.569 0-30-13.431-30-30v-220.5c0-8.284 6.716-15 15-15z" fill="#fe9"/><path d="m470 261.25v220.5c0 16.569-13.431 30-30 30h-184v-265.5h199c8.284 0 15 6.716 15 15z" fill="#fc6"/><path d="m256 .75 16 106.5-16 95.01h-33c-8.28 0-15-6.72-15-15v-138.51c0-26.47 21.53-48 48-48z" fill="#284866"/><path d="m304 48.75v138.51c0 8.28-6.72 15-15 15h-33v-201.51c26.47 0 48 21.53 48 48z" fill="#17324d"/><g fill="#284866"><path d="m168 330.749c-8.284 0-15 6.716-15 15v66.5c0 8.284 6.716 15 15 15s15-6.716 15-15v-66.5c0-8.284-6.716-15-15-15z"/><path d="m256 330.75 13 39.5-13 57c-8.28 0-15-6.72-15-15v-66.5c0-8.29 6.72-15 15-15z"/></g><path d="m344 330.749c-8.284 0-15 6.716-15 15v66.5c0 8.284 6.716 15 15 15s15-6.716 15-15v-66.5c0-8.284-6.716-15-15-15z" fill="#17324d"/><path d="m271 345.75v66.5c0 8.28-6.72 15-15 15v-96.5c8.28 0 15 6.71 15 15z" fill="#17324d"/><g><g><path d="m131.901 71.978-19.567 17.749v-74.477c0-8.284-6.716-15-15-15s-15 6.716-15 15v74.476l-19.568-17.748c-6.136-5.564-15.622-5.104-21.188 1.033-5.566 6.136-5.104 15.622 1.033 21.188l44.646 40.496c2.859 2.593 6.468 3.89 10.078 3.89s7.219-1.296 10.078-3.89l44.645-40.496c6.136-5.566 6.599-15.052 1.033-21.188-5.568-6.138-15.055-6.598-21.19-1.033z" fill="#00dd80"/><path d="m470.422 73.01c-5.565-6.136-15.051-6.598-21.188-1.033l-19.566 17.748v-74.475c0-8.284-6.716-15-15-15s-15 6.716-15 15v74.476l-19.568-17.748c-6.139-5.566-15.624-5.103-21.188 1.033-5.565 6.136-5.104 15.622 1.032 21.188l44.646 40.496c2.859 2.593 6.469 3.89 10.078 3.89s7.219-1.296 10.078-3.89l44.645-40.496c6.134-5.567 6.596-15.053 1.031-21.189z" fill="#00aa95"/></g></g><path d="m256 172.25 18 50-18 54h-231c-13.79 0-25-11.22-25-25v-54c0-13.79 11.21-25 25-25z" fill="#9ddff6"/><path d="m512 197.25v54c0 13.78-11.21 25-25 25h-231v-104h231c13.79 0 25 11.21 25 25z" fill="#8bb9ff"/></g></svg>