<svg id="Capa_1" enable-background="new 0 0 512 512" height="512" viewBox="0 0 512 512" width="512" xmlns="http://www.w3.org/2000/svg"><g><g><path d="m256 0 21 203-21 309h-164.1c-13.79 0-25-11.21-25-25v-462c0-13.79 11.21-25 25-25z" fill="#ecf2ff"/></g><path d="m445.1 25v462c0 13.79-11.21 25-25 25h-164.1v-512h164.1c13.79 0 25 11.21 25 25z" fill="#d9e5ff"/><path d="m256 77.6 12 110.4-12 90.93h-61.82c-6.9 0-12.91-4.7-14.56-11.4l-25.23-102.04c-1.11-4.48-.1-9.22 2.75-12.85 2.84-3.63 7.19-5.76 11.81-5.76h72.05v-54.28c0-8.28 6.72-15 15-15z" fill="#9ddff6"/><path d="m357.62 165.44-24.91 102.05c-1.64 6.72-7.65 11.44-14.57 11.44h-62.14v-201.33c8.28 0 15 6.72 15 15v54.28h72.05c4.61 0 8.96 2.12 11.8 5.74s3.87 8.35 2.77 12.82z" fill="#8bb9ff"/><path d="m256 332.4 8.333 15.267-8.333 14.733h-83.33c-8.29 0-15-6.72-15-15 0-8.29 6.71-15 15-15z" fill="#9ddff6"/><path d="m354.33 347.4c0 8.28-6.71 15-15 15h-83.33v-30h83.33c8.29 0 15 6.71 15 15z" fill="#8bb9ff"/><path d="m256 404.4 7.667 15.933-7.667 14.067h-83.33c-8.29 0-15-6.72-15-15 0-8.29 6.71-15 15-15z" fill="#9ddff6"/><path d="m354.33 419.4c0 8.28-6.71 15-15 15h-83.33v-30h83.33c8.29 0 15 6.71 15 15z" fill="#8bb9ff"/></g></svg>