<svg id="Capa_1" enable-background="new 0 0 512.04 512.04" height="512" viewBox="0 0 512.04 512.04" width="512" xmlns="http://www.w3.org/2000/svg"><g><g><path d="m192.82 20.95c-6.46 1.71-13.79 2.46-21.55 3.25-39.872 4.097-51.211 11.05-74.03 42.49-12.067 16.6-14.66 19.187-31.3 31.15-31.316 22.544-38.566 33.736-42.69 73.76-2.096 20.23-2.999 23.341-11.08 41.35-16.229 36.201-16.225 49.948 0 86.14 8.079 18.004 8.983 21.113 11.08 41.35 4.128 40.062 11.399 51.234 42.69 73.76 16.661 11.978 19.246 14.569 31.3 31.15 22.84 31.468 34.187 38.396 74.03 42.49 20.169 2.053 23.423 2.939 41.59 11.03 12.7 5.66 27.1 12.07 43.18 12.07l23-250.92-23-258.92c-24.77 0-45.296 15.114-63.22 19.85z" fill="#f66"/></g><g><path d="m492.101 193.02c-4.866-18.24-2.003-43.424-14.3-64.57-12.269-21.052-35.337-30.813-49.04-44.46-13.785-13.728-23.529-36.621-44.68-48.83-21.195-12.222-46.601-9.387-64.82-14.21-17.93-4.737-38.441-19.85-63.221-19.85v509.84c24.77 0 45.297-15.114 63.22-19.85 18.205-4.819 43.627-1.99 64.82-14.21 21.151-12.209 30.896-35.103 44.68-48.83 13.703-13.647 36.771-23.408 49.04-44.46 12.299-21.15 9.433-46.327 14.3-64.57 4.748-17.777 19.94-38.314 19.94-63 0-24.681-15.194-45.23-19.939-63z" fill="#e62e6b"/></g><path d="m256.04 73.1 17 177.92-17 187.92c-101.22 0-183.57-82.06-183.57-182.92s82.35-182.92 183.57-182.92z" fill="#ecf2ff"/><path d="m439.611 256.02c0 100.86-82.35 182.92-183.57 182.92v-365.84c101.219 0 183.57 82.06 183.57 182.92z" fill="#d9e5ff"/><g><g><path d="m256.04 214.23 12.5 42.79-12.5 34.74-19.67 46.86c-3.193 7.604-11.953 11.252-19.63 8.02-7.64-3.2-11.23-11.99-8.03-19.63z" fill="#f66"/></g><g><path d="m202.77 153.54c-24.32 0-44.11 21.9-44.11 48.82s19.79 48.83 44.11 48.83 44.1-21.91 44.1-48.83c.001-26.92-19.78-48.82-44.1-48.82zm0 67.65c-7.65 0-14.11-8.62-14.11-18.83 0-10.2 6.46-18.82 14.11-18.82s14.1 8.62 14.1 18.82c.001 10.21-6.45 18.83-14.1 18.83z" fill="#f66"/></g></g><g><path d="m302.25 181.66-46.21 110.1v-77.53l18.54-44.18c3.21-7.63 12-11.23 19.64-8.02 7.641 3.2 11.23 11.99 8.03 19.63z" fill="#e62e6b"/></g><g><path d="m309.31 260.85c-24.32 0-44.1 21.91-44.1 48.83s19.78 48.82 44.1 48.82 44.11-21.9 44.11-48.82-19.789-48.83-44.11-48.83zm0 67.65c-7.65 0-14.1-8.62-14.1-18.82 0-10.21 6.45-18.83 14.1-18.83s14.11 8.62 14.11 18.83c0 10.2-6.46 18.82-14.11 18.82z" fill="#e62e6b"/></g></g></svg>