<svg id="Capa_1" enable-background="new 0 0 512 512" height="512" viewBox="0 0 512 512" width="512" xmlns="http://www.w3.org/2000/svg"><g><path d="m256.002 207.11 13.667 100.557-13.667 204.333h-150.09c-19.3 0-35-15.7-35-35v-249.26l-67.2-76.87c-5.46-6.23-4.82-15.71 1.42-21.16 6.23-5.46 15.71-4.82 21.16 1.42l66.43 75.98z" fill="#fe9"/><path d="m508.292 150.87-67.2 76.87v249.26c0 19.3-15.7 35-35 35h-150.09v-304.89h163.28l66.43-75.98c5.45-6.24 14.92-6.88 21.16-1.42 6.24 5.45 6.87 14.93 1.42 21.16z" fill="#fc6"/><g><path d="m207.903 71.728-19.567 17.749v-74.477c0-8.284-6.716-15-15-15s-15 6.716-15 15v74.476l-19.568-17.749c-6.135-5.565-15.622-5.104-21.188 1.033s-5.104 15.622 1.033 21.188l44.646 40.496c5.717 5.186 14.437 5.187 20.155 0l44.645-40.496c6.136-5.566 6.599-15.052 1.033-21.188-5.567-6.136-15.053-6.597-21.189-1.032z" fill="#00dd80"/><path d="m394.424 72.76c-5.566-6.137-15.053-6.599-21.188-1.033l-19.568 17.749v-74.476c0-8.284-6.716-15-15-15s-15 6.716-15 15v74.476l-19.567-17.749c-6.137-5.565-15.622-5.104-21.188 1.033-5.566 6.136-5.104 15.622 1.033 21.188l44.645 40.496c5.717 5.186 14.437 5.187 20.155 0l44.646-40.496c6.136-5.566 6.598-15.052 1.032-21.188z" fill="#00aa95"/></g><g><path d="m358.002 375h-67c-8.284 0-15-6.716-15-15s6.716-15 15-15h67c8.284 0 15 6.716 15 15s-6.716 15-15 15z" fill="#00aa95"/></g><g><path d="m358.002 440h-67c-8.284 0-15-6.716-15-15s6.716-15 15-15h67c8.284 0 15 6.716 15 15s-6.716 15-15 15z" fill="#00aa95"/></g></g></svg>