<svg id="Capa_1" enable-background="new 0 0 512 512" height="512" viewBox="0 0 512 512" width="512" xmlns="http://www.w3.org/2000/svg"><g><path d="m360.75 294 21.25 111.94-21.25 94.17c0 3.98-.02 7.92-.07 11.83h-106.18c-24.81 0-45-20.19-45-45v-98c0-7.5 1.8-14.94 5.2-21.61l10.52-29.13 5.17-14.3c2.15-5.94 7.79-9.9 14.11-9.9z" fill="#ecf2ff"/><path d="m512 368.94v98c0 24.81-20.19 45-45 45h-106.32c.05-3.91.07-7.85.07-11.83v-206.11h116.25c6.32 0 11.96 3.96 14.11 9.9l5.17 14.3 10.52 29.13c1.67 3.27 2.96 6.74 3.83 10.31.9 3.69 1.37 7.49 1.37 11.3z" fill="#d9e5ff"/><g><path d="m61.48 14.32-10.71 14.16c-15.56 20.56-24.13 47.02-24.13 74.51v104.04c0 8.28 6.72 15 15 15h47.56l24.8-123.09-24.8-98.94c-10.73 0-20.84 5.22-27.72 14.32z" fill="#f66"/></g><g><path d="m127.64 28.48-10.71-14.16c-6.89-9.1-16.99-14.32-27.73-14.32v222.03h47.57c8.28 0 15-6.72 15-15v-104.04c0-27.49-8.57-53.95-24.13-74.51z" fill="#e62e6b"/></g><path d="m360.75 218.94 13.25 52-13.25 53.06h-29.75l-15.62-10.02-14.13 10.02h-56.75c-7.12 0-13.75-2.13-19.28-5.8-9.47-6.27-15.72-17.02-15.72-29.2v-35.06c0-19.3 15.7-35 35-35h56.75l14.13 11.71 15.62-11.71z" fill="#fe9"/><path d="m512 253.94v35.06c0 12.18-6.25 22.93-15.72 29.2-5.53 3.67-12.16 5.8-19.28 5.8h-56.5l-15.92-7.31-14.08 7.31h-29.75v-105.06h29.75l14.08 14.42 15.67-14.42h56.75c19.3 0 35 15.7 35 35z" fill="#fc6"/><g><path d="m301.25 218.94h30v105.06h-30z" fill="#fc6"/></g><g><path d="m390.25 218.94h30v105.06h-30z" fill="#ffa64d"/></g><path d="m512 368.94v79.36h-126.833c-13.38 0-24.27-10.89-24.27-24.28v-42.1c0-13.39 10.89-24.28 24.27-24.28h125.463c.9 3.69 1.37 7.49 1.37 11.3z" fill="#ffa64d"/><g><path d="m40.01 192.03c-4.91 0-9.5 1.42-13.37 3.88-6.99 4.44-11.64 12.24-11.64 21.12v57.51c0 8.29 6.72 15 15 15h59.2l14.8-52.6-14.8-44.91z" fill="#284866"/></g><g><path d="m151.77 195.91c-3.87-2.46-8.45-3.88-13.37-3.88h-49.2v97.51h59.21c8.28 0 15-6.71 15-15v-57.51c0-8.88-4.65-16.68-11.64-21.12z" fill="#17324d"/></g><path d="m89.2 259.54 17.8 102.4-17.8 150.06h-54.19c-19.3 0-35.01-15.7-35.01-35.01v-202.45c0-8.28 6.72-15 15-15z" fill="#9ddff6"/><path d="m178.41 274.54v202.45c0 19.31-15.71 35.01-35.02 35.01h-54.19v-252.46h74.21c8.28 0 15 6.72 15 15z" fill="#8bb9ff"/></g></svg>