<svg id="Capa_1" enable-background="new 0 0 512 512" height="512" viewBox="0 0 512 512" width="512" xmlns="http://www.w3.org/2000/svg"><g><path d="m259.153 65.292 24.483 91.483-1.018 75.911-.575.155-62.569 1.588-74.842 1.912-15.653.394-.276.006-22.95-163.714 89.341-12.524 63.827 4.886z" fill="#ecf2ff"/><path d="m379.965 34.588c7.826-1.097 15.059 4.358 16.156 12.183l20.963 149.545-.246.066-73.137 19.78-61.082 16.523-23.466-167.393 52.915-21.187z" fill="#d9e5ff"/><path d="m280.214 215.534 24.272 110.251 6.857 111.815-151.507 21.238-31.129-222.065z" fill="#fc6"/><path d="m295.109 204.855h138.213v224.237h-138.213z" fill="#ffa64d" transform="matrix(.99 -.139 .139 .99 -40.477 53.631)"/><g><path d="m309.145 421.923 4.395 31.355-151.507 21.238c-8.664 1.215-16.662-4.826-17.875-13.48l-59.552-424.827c-.404-2.885-3.074-4.898-5.958-4.493l-54.401 7.626c-8.654 1.213-16.662-4.826-17.875-13.48-1.215-8.665 4.826-16.662 13.48-17.875l54.401-7.626c20.172-2.828 38.881 11.281 41.709 31.453l57.355 409.15z" fill="#9ddff6"/></g><g><path d="m505.628 410.365c1.213 8.654-4.826 16.662-13.48 17.875l-178.608 25.037-4.395-31.355 178.608-25.037c8.654-1.213 16.661 4.816 17.875 13.48z" fill="#8bb9ff"/></g><path d="m301.014 363.916 21.815 62.316-1.158 85.042c-35.243 4.94-68.287-15.791-80.121-47.904-1.827-4.902-3.136-10.057-3.891-15.44s-.914-10.699-.505-15.915c2.547-34.14 28.607-63.157 63.86-68.099z" fill="#284866"/><path d="m385.017 427.273c.755 5.383.914 10.699.504 15.915-2.548 34.129-28.607 63.146-63.85 68.086l-20.657-147.357c35.253-4.942 68.277 15.793 80.112 47.916 1.827 4.901 3.136 10.057 3.891 15.44z" fill="#17324d"/><path d="m280.214 215.534 15.827 29.731-6.942 33.647c-.648.091-1.299.31-1.882.637l-50.104 28.625c-3.236 1.85-7.322-.156-7.839-3.846l-11.226-80.08z" fill="#9ddff6"/><path d="m342.391 206.818 11.226 80.08c.517 3.689-2.86 6.742-6.48 5.853l-56.043-13.746c-.661-.153-1.326-.187-1.995-.093l-8.884-63.379z" fill="#8bb9ff"/><path d="m257.26 51.789 21.541 32.486-12.658 30.882c-.648.091-1.299.31-1.881.647l-50.104 28.625c-3.236 1.85-7.32-.146-7.839-3.846l-11.226-80.08z" fill="#9ddff6"/><path d="m319.437 43.073 11.226 80.08c.519 3.7-2.86 6.742-6.49 5.855l-56.033-13.747c-.662-.163-1.328-.198-1.997-.104l-8.883-63.368z" fill="#8bb9ff"/></g></svg>