<svg id="Capa_1" enable-background="new 0 0 512 512" height="512" viewBox="0 0 512 512" width="512" xmlns="http://www.w3.org/2000/svg"><g><path d="m225.414 258h-85.331c-8.284 0-15 6.716-15 15v134.667c0 8.284 6.716 15 15 15h85.331c8.284 0 15-6.716 15-15v-134.667c0-8.284-6.716-15-15-15z" fill="#00dd80"/><path d="m371.917 258h-85.331c-8.284 0-15 6.716-15 15v134.667c0 8.284 6.716 15 15 15h85.331c8.284 0 15-6.716 15-15v-134.667c0-8.284-6.716-15-15-15z" fill="#fc6"/><path d="m133.353 6.779v60.42l40.647 12.801 41.084-12.801v-60.42c0-3.744-2.962-6.779-6.615-6.779h-68.502c-3.653 0-6.614 3.035-6.614 6.779z" fill="#00aa95"/><path d="m297.059 6.779v60.42l41.941 12.801 39.79-12.801v-60.42c0-3.744-2.962-6.779-6.615-6.779h-68.502c-3.652 0-6.614 3.035-6.614 6.779z" fill="#ffa64d"/><path d="m215.084 67.199h-81.731l-6.597 25.961c-1.011 3.977-1.528 8.069-1.539 12.179l-.109 53.661c0 3.744 2.962 6.779 6.615 6.779h84.739c3.653 0 6.615-3.035 6.615-6.779l.108-53.521c.012-4.202-.506-8.389-1.539-12.456z" fill="#00dd80"/><path d="m378.79 67.199h-81.731l-6.597 25.961c-1.011 3.977-1.528 8.069-1.539 12.179l-.108 53.661c0 3.744 2.962 6.779 6.615 6.779h84.739c3.653 0 6.615-3.035 6.615-6.779l.108-53.521c.012-4.202-.506-8.389-1.539-12.456z" fill="#fc6"/><path d="m90 394.43v-183h166l18-27.43-18-32.57h-166v-136.43c0-8.284-6.716-15-15-15h-60c-8.284 0-15 6.716-15 15v482c0 8.284 6.716 15 15 15h60c8.284 0 15-6.716 15-15v-42.57h166l15-35.43-15-24.57z" fill="#ecf2ff"/><path d="m497 0h-60c-8.284 0-15 6.716-15 15v136.43h-166v60h166v183h-166v60h166v42.57c0 8.284 6.716 15 15 15h60c8.284 0 15-6.716 15-15v-482c0-8.284-6.716-15-15-15z" fill="#d9e5ff"/></g></svg>