<svg id="Capa_1" enable-background="new 0 0 512 512" height="512" viewBox="0 0 512 512" width="512" xmlns="http://www.w3.org/2000/svg"><g><path d="m256 54.09 15 163.89-15 293.88h-192.32c-5.66 0-10.25-4.59-10.25-10.26v-447.51z" fill="#ecf2ff"/><path d="m458.57 54.09v447.51c0 5.67-4.59 10.26-10.25 10.26h-192.32v-457.77z" fill="#d9e5ff"/><path d="m256 252.98v259h-115.65c-.63 0-1.25-.04-1.86-.12-7.41-.91-13.14-7.23-13.14-14.88v-209c0-19.3 15.7-35 35-35z" fill="#9ddff6"/><path d="m256 511.86v-258.88h15 80.65c19.3 0 35 15.7 35 35v209c0 7.65-5.73 13.97-13.14 14.88-.61.08-1.23.12-1.86.12h-100.65-15z" fill="#8bb9ff"/><path d="m174.958 178.501c-22.379 0-40.521-18.142-40.521-40.521l-12.187-30.98 12.188-31.478h81.042l9.52 33.728-9.521 28.73c0 22.379-18.142 40.521-40.521 40.521z" fill="#f66"/><g><path d="m241 252.98h15v259h-15z" fill="#284866"/></g><g><path d="m256 511.98h15v-.12-258.88h-15v258.88z" fill="#17324d"/></g><path d="m93.917 178.501c-22.379 0-40.521-18.142-40.521-40.521v-62.458h81.042v62.458c0 22.379-18.142 40.521-40.521 40.521z" fill="#9ddff6"/><path d="m337.042 178.501c-22.379 0-40.521-18.142-40.521-40.521l-8.021-23.98 8.021-38.478h81.042l9.437 39.978-9.438 22.48c.001 22.379-18.141 40.521-40.52 40.521z" fill="#e62e6b"/><path d="m256 75.52 16 54.46-16 48.52c-22.38 0-40.52-18.14-40.52-40.52v-62.46z" fill="#9ddff6"/><path d="m296.52 75.52v62.46c0 22.38-18.14 40.52-40.52 40.52v-102.98z" fill="#8bb9ff"/><path d="m418.083 178.501c-22.379 0-40.521-18.142-40.521-40.521v-62.458h81.042v62.458c0 22.379-18.142 40.521-40.521 40.521z" fill="#8bb9ff"/><g><path d="m35 .02c-19.3 0-35 15.7-35 35v20.51c0 19.3 15.7 35 35 35h221l18-48.55-18-41.96z" fill="#284866"/></g><g><path d="m477 .02h-221v90.51h221c19.3 0 35-15.7 35-35v-20.51c0-19.3-15.7-35-35-35z" fill="#17324d"/></g></g></svg>