<svg id="Capa_1" enable-background="new 0 0 512 512" height="512" viewBox="0 0 512 512" width="512" xmlns="http://www.w3.org/2000/svg"><g><path d="m256 0 24 249-24 263c-14.66 0-29.32-3.1-42.98-9.3l-104.44-47.4c-37.08-16.83-61.04-54.02-61.04-94.74v-269.83c0-13.79 11.21-25 25-25h1.73c22.46 0 40.73-18.27 40.73-40.73 0-13.79 11.21-25 25-25z" fill="#fe9"/><path d="m464.46 90.72v269.87c0 40.7-23.95 77.87-61.01 94.7l-104.48 47.41c-13.65 6.2-28.31 9.3-42.97 9.3v-512h116c6.9 0 13.14 2.8 17.67 7.33s7.33 10.77 7.33 17.67c0 22.46 18.27 40.73 40.73 40.73h1.73c13.79 0 25 11.21 25 24.99z" fill="#fc6"/><path d="m256 70 14 173-14 199c-4.88 0-9.6-1.02-14.05-3.04l-104.44-47.4c-12.13-5.51-19.97-17.68-19.97-31v-224.17c0-5.57 3.09-10.68 8.02-13.28 19.54-10.26 35.44-25.92 46.01-45.29 2.63-4.82 7.68-7.82 13.17-7.82z" fill="#9ddff6"/><path d="m394.46 136.39v224.2c0 13.31-7.83 25.46-19.95 30.96l-104.46 47.41c-2.22 1.01-4.51 1.77-6.86 2.28-2.35.5-4.75.76-7.19.76v-372h71.26c5.49 0 10.54 3 13.17 7.82 10.57 19.37 26.48 35.04 46.01 45.29 4.93 2.6 8.02 7.71 8.02 13.28z" fill="#8bb9ff"/><g><path d="m256 248.16 7 17.84-7 19.77-15.45 11.69c-2.71 2.05-5.89 3.04-9.04 3.04-4.45 0-8.86-1.98-11.82-5.75l-29-37c-5.11-6.52-3.96-15.95 2.56-21.06s15.95-3.96 21.06 2.56l19.9 25.39z" fill="#fc6"/></g><g><path d="m318.55 238.46-62.55 47.31v-37.61l44.45-33.62c6.61-5 16.02-3.7 21.01 2.91 5 6.61 3.7 16.02-2.91 21.01z" fill="#ffa64d"/></g></g></svg>