<svg id="Capa_1" enable-background="new 0 0 512 512" height="512" viewBox="0 0 512 512" width="512" xmlns="http://www.w3.org/2000/svg"><g><path d="m150.75 204.782h-115.748v-119.75c0-2.761 2.239-5 5-5h110.748l11.75 50.417z" fill="#9ddff6"/><path d="m266.5 204.782h-115.748v-199.75c0-2.761 2.239-5 5-5h105.748c2.761 0 5 2.239 5 5z" fill="#e62e6b"/><path d="m150.75 163.388 30.25 151.56-30.25 197h-115.75c-19.3 0-35-15.7-35-35v-291.43c0-6.74 3.36-12.97 8.98-16.69 5.62-3.71 12.68-4.35 18.88-1.7l55.01 23.51 60.02-25.65c2.5-1.06 5.18-1.6 7.86-1.6z" fill="#fe9"/><path d="m301.5 185.518v291.43c0 19.3-15.7 35-35 35h-115.75v-348.56c2.69 0 5.37.54 7.86 1.6l60.01 25.65 55.02-23.51h.01c6.19-2.65 13.25-2.01 18.87 1.7 5.63 3.72 8.98 9.95 8.98 16.69z" fill="#fc6"/><path d="m422.09 176.948 22.243 111.333-22.243 223.687h-54.92c-19.3 0-35-15.7-35-35v-228.95c0-7.96 1.93-15.9 5.58-22.97l14.09-27.29 6.55-12.69c2.58-4.99 7.72-8.12 13.33-8.12z" fill="#fe9"/><path d="m512 248.018v228.95c0 19.3-15.7 35-35 35h-54.91v-335.02h50.36c5.62 0 10.76 3.13 13.33 8.12l6.56 12.7 14.08 27.28c3.65 7.07 5.58 15.01 5.58 22.97z" fill="#fc6"/><path d="m371.72 95.768c-14.43 0-26.18 11.75-26.18 26.18v40.31c0 6.47 2.37 12.42 6.3 16.99 4.79 5.62 11.93 9.19 19.88 9.19h50.37l16.243-41.49-16.243-51.18z" fill="#9ddff6"/><g><path d="m472.45 95.768h-50.36v92.67h50.36c7.95 0 15.08-3.56 19.89-9.18 3.92-4.57 6.29-10.52 6.29-17v-40.31c0-14.43-11.74-26.18-26.18-26.18z" fill="#8bb9ff"/></g></g></svg>