<svg id="Capa_1" enable-background="new 0 0 512 512" height="512" viewBox="0 0 512 512" width="512" xmlns="http://www.w3.org/2000/svg"><g><g><path d="m213.23 384.667c-7.04 0-13.14 4.9-14.65 11.78l-4.01 18.22-13.19 60-2.59 11.78c-2.056 9.313 5.036 18.22 14.65 18.22h62.56l20.333-59.667-20.333-60.333z" fill="#ecf2ff"/></g><g><path d="m333.21 486.447-2.59-11.78-13.19-60-4.01-18.22c-1.51-6.88-7.61-11.78-14.65-11.78h-42.77v120h62.56c9.613 0 16.706-8.906 14.65-18.22z" fill="#d9e5ff"/></g><path d="m256 314.98 18.333 58.02-18.333 49h-211c-24.81 0-45-20.19-45-45v-37.33z" fill="#9ddff6"/><path d="m512 339.67v37.33c0 24.81-20.19 45-45 45h-211v-107.02l5-.48z" fill="#8bb9ff"/><g><path d="m256 482 15 13.667-15 16.333h-135.17c-8.28 0-15-6.72-15-15s6.72-15 15-15z" fill="#9ddff6"/></g><g><path d="m406.17 497c0 8.28-6.72 15-15 15h-135.17v-30h135.17c8.28 0 15 6.72 15 15z" fill="#8bb9ff"/></g><path d="m45 101c-24.81 0-45 20.19-45 45v193.67h256l21-104.67-21-134z" fill="#ecf2ff"/><path d="m467 101h-211v238.67h256v-193.67c0-24.81-20.19-45-45-45z" fill="#d9e5ff"/><path d="m256 70.46 19.667 119.873-19.667 100.867h-95.37c-14.81 0-26.86-12.05-26.86-26.87v-167c0-14.81 12.05-26.87 26.86-26.87z" fill="#00dd80"/><g><path d="m256 0 13 16.5-13 13.5h-25.21c-1.55 0-2.8 1.25-2.8 2.8v87.8c0 8.28-6.72 15-15 15-8.29 0-15-6.72-15-15v-87.8c0-18.09 14.71-32.8 32.8-32.8z" fill="#284866"/></g><path d="m378.23 97.33v167c0 14.82-12.05 26.87-26.86 26.87h-95.37v-220.74h95.37c14.81 0 26.86 12.06 26.86 26.87z" fill="#00aa95"/><g><path d="m314.01 32.8v87.8c0 8.28-6.71 15-15 15-8.28 0-15-6.72-15-15v-87.8c0-1.55-1.25-2.8-2.8-2.8h-25.21v-30h25.21c18.09 0 32.8 14.71 32.8 32.8z" fill="#17324d"/></g></g></svg>