<svg id="Capa_1" enable-background="new 0 0 512 512" height="512" viewBox="0 0 512 512" width="512" xmlns="http://www.w3.org/2000/svg"><g><path d="m193.88 214.17 19.266 142.396-19.266 155.374h-169.14c-13.64 0-24.74-11.1-24.74-24.74v-248.28c0-13.65 11.1-24.75 24.74-24.75z" fill="#9ddff6"/><path d="m387.75 229.17v258.03c0 13.64-11.15 24.74-24.86 24.74h-169.01v-297.77h178.87c8.28 0 15 6.72 15 15z" fill="#8bb9ff"/><path d="m121.28 274.545h-44.144c-13.786 0-25.001 11.216-25.001 25.002v44.144c0 13.786 11.216 25.002 25.001 25.002h44.144c13.786 0 25.002-11.216 25.002-25.002v-44.144c0-13.787-11.216-25.002-25.002-25.002z" fill="#ecf2ff"/><path d="m84.033 407.93h-16.899c-8.284 0-15 6.716-15 15s6.716 15 15 15h16.898c8.284 0 15-6.716 15-15s-6.715-15-14.999-15z" fill="#ecf2ff"/><path d="m320.616 407.93h-16.898c-8.284 0-15 6.716-15 15s6.716 15 15 15h16.898c8.284 0 15-6.716 15-15s-6.716-15-15-15z" fill="#d9e5ff"/><path d="m162.894 407.93h-16.898c-8.284 0-15 6.716-15 15s6.716 15 15 15h16.898c8.284 0 15-6.716 15-15s-6.716-15-15-15z" fill="#ecf2ff"/><path d="m241.755 407.93h-16.898c-8.284 0-15 6.716-15 15s6.716 15 15 15h16.898c8.284 0 15-6.716 15-15s-6.716-15-15-15z" fill="#d9e5ff"/><path d="m387.81.06v287.29c0 4.96-.11 9.88-.33 14.75-9.09-.05-18.17-1.99-26.63-5.83l-58.95-26.75c-23.26-10.56-38.29-33.88-38.29-59.42v-152.3c0-11.39 9.26-20.65 20.65-20.65h.98c9.07 0 16.45-7.38 16.45-16.45 0-11.38 9.26-20.64 20.64-20.64h65.48z" fill="#fe9"/><path d="m512 57.79v152.32c0 25.53-15.02 48.85-38.27 59.4l-58.97 26.76c-8.56 3.89-17.76 5.83-26.95 5.83h-.33c.22-4.87.33-9.79.33-14.75v-287.29h65.47c11.38 0 20.64 9.26 20.64 20.64 0 9.07 7.38 16.45 16.45 16.45h.99c11.38 0 20.64 9.26 20.64 20.64z" fill="#fc6"/><g><path d="m387.81 139.16v37.62l-6.34 4.79c-6.522 4.934-15.793 3.744-20.86-2.71l-18.21-23.24c-5.11-6.52-3.97-15.95 2.55-21.06s15.95-3.96 21.06 2.56l9.12 11.63z" fill="#9ddff6"/></g><g><path d="m430.46 144.52-42.65 32.26v-37.62l24.55-18.57c6.6-5 16.01-3.69 21.01 2.91 5 6.61 3.69 16.02-2.91 21.02z" fill="#8bb9ff"/></g></g></svg>