<svg id="Capa_1" enable-background="new 0 0 512 512" height="512" viewBox="0 0 512 512" width="512" xmlns="http://www.w3.org/2000/svg"><g><path d="m256 129.84 22 171.16-22 211h-197.82c-5.88 0-10.62-4.76-10.62-10.62v-87.38l14.44-48.5-14.44-45.583v-309.297c0-5.86 4.74-10.62 10.62-10.62h77.37c0 73.38 54.58 126.71 120.45 129.84z" fill="#00dd80"/><path d="m464.44 10.62v309.38l-21.69 36.375 21.69 58.125v86.88c0 5.86-4.74 10.62-10.62 10.62h-197.82v-382.16c6.15.29 12.39.15 18.7-.46 61.69-5.82 114.06-57.28 114.06-129.38h65.06c5.88 0 10.62 4.76 10.62 10.62z" fill="#00aa95"/><path d="m256 91.98 10 34.02-10 29.84c-.96-.04-1.92-.09-2.87-.16-66.41-4.41-117.58-60.5-117.58-127.06v-28.62h35.42c12.01 0 21.74 9.73 21.74 21.74v.11c0 36.28 27.49 67.02 63.29 70.13z" fill="#284866"/><path d="m388.76 0v28.65c0 65.2-49.14 120.61-114.06 126.73-4.16.4-8.36.6-12.62.6-1.96 0-3.96-.04-5.91-.13-.06 0-.11 0-.17-.01v-63.86c.97.09 1.96.16 2.95.2 39.74 1.74 72.49-29.94 72.49-69.3v-1.14c0-12.01 9.74-21.74 21.74-21.74z" fill="#17324d"/><path d="m256 319.73 12 41.27-12 53.27h-208.44v-94.54z" fill="#284866"/><path d="m256 319.73h208.44v94.54h-208.44z" fill="#17324d"/></g></svg>