<svg id="Capa_1" enable-background="new 0 0 512 512" height="512" viewBox="0 0 512 512" width="512" xmlns="http://www.w3.org/2000/svg"><g><path d="m169.218 0c-8.295 0-15.02 6.725-15.02 15.02v49.291c0 8.295 6.725 15.02 15.02 15.02s15.02-6.725 15.02-15.02v-49.291c0-8.295-6.725-15.02-15.02-15.02z" fill="#f66"/><path d="m342.784 0c-8.295 0-15.02 6.725-15.02 15.02v49.291c0 8.295 6.725 15.02 15.02 15.02s15.02-6.725 15.02-15.02v-49.291c0-8.295-6.725-15.02-15.02-15.02z" fill="#e62e6b"/><path d="m256.001 222.4 24.032 102.367-24.032 187.22c-75.711.561-151.583-17.934-190.254-57.577-8.501-8.702-9.202-22.38-1.612-31.893l140.798-176.456 47.704-25.214z" fill="#284866"/><path d="m445.755 454.721c-37.881 36.909-113.742 56.696-189.754 57.267v-289.588l51.188 23.632.06.03 140.628 176.256c7.761 9.733 6.799 23.721-2.122 32.403z" fill="#17324d"/><path d="m256.001 121.115 20.027 65.468-20.027 59.479h-51.158l-27.847-30.891c-7.45-8.251-11.565-18.975-11.565-30.09v-63.966z" fill="#e62e6b"/><path d="m346.572 121.115v63.966c0 11.115-4.115 21.839-11.565 30.09l-27.817 30.861-.03.03h-51.158v-124.947z" fill="#b32453"/><path d="m256.001 64.649 17.023 30.811-17.023 36.64h-119.36c-5.718 0-10.354-4.636-10.354-10.364v-46.733c0-5.718 4.636-10.354 10.354-10.354z" fill="#f66"/><path d="m385.714 75.003v46.732c0 5.728-4.636 10.364-10.354 10.364h-119.36v-67.45h119.36c5.718 0 10.354 4.637 10.354 10.354z" fill="#e62e6b"/></g></svg>