<svg id="Capa_1" enable-background="new 0 0 511.992 511.992" height="512" viewBox="0 0 511.992 511.992" width="512" xmlns="http://www.w3.org/2000/svg"><g><g><path d="m34.984.112c-19.291 0-34.984 15.693-34.984 34.984v441.8c0 19.291 15.693 34.984 34.984 34.984h148.533l24.989-255.884-24.989-255.884z" fill="#ecf2ff"/></g><g><path d="m332.05.112h-148.533v511.769h148.533c19.291 0 34.984-15.693 34.984-34.984v-441.8c0-19.292-15.693-34.985-34.984-34.985z" fill="#d9e5ff"/></g><path d="m367.036 293.021 15.413 75.193-15.413 108.687c0 5.38-1.22 10.47-3.39 15.03-1.4-.5-2.71-1.33-3.81-2.47l-118.23-122.62c-41.87-43.42-12.37-117.48 49.49-117.48 30.56 0 57.24 16.54 71.61 41.16.98 1.67 2.66 2.5 4.33 2.5z" fill="#f66"/><path d="m492.446 366.841-118.22 122.62c-2.83 2.93-7 3.75-10.58 2.47 2.17-4.56 3.39-9.65 3.39-15.03v-183.88c1.68 0 3.34-.84 4.31-2.5 14.37-24.62 41.06-41.16 71.61-41.16 61.87 0 91.35 74.07 49.49 117.48z" fill="#e62e6b"/><g fill="#9ddff6"><path d="m183.512 108.063 9.386 15.493-9.386 14.493h-96.286c-8.276 0-14.993-6.717-14.993-14.993s6.717-14.993 14.993-14.993z"/><path d="m183.512 196.693 6.887 15.323-6.887 14.663h-96.286c-8.276 0-14.993-6.717-14.993-14.993 0-8.286 6.717-14.993 14.993-14.993z"/><path d="m87.228 315.302h61.737c8.28 0 14.993-6.713 14.993-14.993s-6.713-14.993-14.993-14.993h-61.737c-8.28 0-14.993 6.713-14.993 14.993-.001 8.281 6.712 14.993 14.993 14.993z"/><path d="m168.409 373.943h-81.181c-8.28 0-14.993 6.713-14.993 14.993s6.713 14.993 14.993 14.993h81.182c8.28 0 14.993-6.713 14.993-14.993s-6.713-14.993-14.994-14.993z"/></g><path d="m294.802 123.056c0 8.276-6.717 14.993-14.993 14.993h-96.296v-29.986h96.296c8.276 0 14.993 6.717 14.993 14.993z" fill="#8bb9ff"/><path d="m218.937 211.686c0 8.276-6.717 14.993-14.993 14.993h-20.431v-29.986h20.431c8.276 0 14.993 6.707 14.993 14.993z" fill="#8bb9ff"/><path d="m367.036 342.901 10.08 36.48-10.08 39.87h-.01c-8.28 0-14.99-6.71-14.99-14.99v-8.19h-8.19c-8.28 0-14.99-6.71-14.99-14.99s6.71-14.99 14.99-14.99h8.19v-8.19c0-8.28 6.71-15 14.99-15z" fill="#e62e6b"/><path d="m405.206 381.081c0 8.28-6.72 14.99-15 14.99h-8.18v8.19c0 8.28-6.71 14.98-14.99 14.99v-76.35c8.28.01 14.99 6.72 14.99 15v8.19h8.18c8.28 0 15 6.71 15 14.99z" fill="#b32453"/></g></svg>