<svg id="Capa_1" enable-background="new 0 0 512 512" height="512" viewBox="0 0 512 512" width="512" xmlns="http://www.w3.org/2000/svg"><g><g><path d="m213.23 365.647c-7.04 0-13.14 4.9-14.65 11.78l-4.01 18.22-13.19 60-2.59 11.78c-2.056 9.313 5.036 18.22 14.65 18.22h62.56l20.333-59.667-20.333-60.333z" fill="#ecf2ff"/></g><g><path d="m333.21 467.427-2.59-11.78-13.19-60-4.01-18.22c-1.51-6.88-7.61-11.78-14.65-11.78h-42.77v120h62.56c9.613 0 16.706-8.906 14.65-18.22z" fill="#d9e5ff"/></g><path d="m256 295.96 18.333 58.02-18.333 49h-211c-24.81 0-45-20.19-45-45v-37.33z" fill="#9ddff6"/><path d="m512 320.65v37.33c0 24.81-20.19 45-45 45h-211v-107.02l5-.48z" fill="#8bb9ff"/><g><path d="m256 462.98 15 13.667-15 16.333h-135.17c-8.28 0-15-6.72-15-15s6.72-15 15-15z" fill="#9ddff6"/></g><g><path d="m406.17 477.98c0 8.28-6.72 15-15 15h-135.17v-30h135.17c8.28 0 15 6.72 15 15z" fill="#8bb9ff"/></g><g><path d="m45 81.98c-24.81 0-45 20.19-45 45v193.67h256l21-104.67-21-134z" fill="#fe9"/></g><path d="m467 81.98h-211v238.67h256v-193.67c0-24.81-20.19-45-45-45z" fill="#fc6"/><path d="m102.26 71.66h153.74v248.99h-153.74z" fill="#ecf2ff"/><path d="m256 71.66h153.74v248.99h-153.74z" fill="#d9e5ff"/><path d="m174.958 122.003c-22.379 0-40.521-18.142-40.521-40.521l-5.937-36.982 5.938-25.476h81.042l5.77 30.476-5.771 31.982c0 22.379-18.142 40.521-40.521 40.521z" fill="#e62e6b"/><path d="m93.917 122.003c-22.379 0-40.521-18.142-40.521-40.521v-52.458c0-5.523 4.477-10 10-10h71.042v62.458c0 22.379-18.142 40.521-40.521 40.521z" fill="#9ddff6"/><path d="m337.042 122.003c-22.379 0-40.521-18.142-40.521-40.521l-5.688-35.649 5.688-26.81h81.042l4.437 27.977-4.438 34.482c.001 22.379-18.141 40.521-40.52 40.521z" fill="#b32453"/><path d="m256 19.02 11 37.627-11 65.353c-22.38 0-40.52-18.14-40.52-40.52v-62.46z" fill="#9ddff6"/><path d="m296.52 19.02v62.46c0 22.38-18.14 40.52-40.52 40.52v-102.98z" fill="#8bb9ff"/><path d="m256 191.98 5.333 56.333-5.333 72.337h-78.28v-115.13c0-7.48 6.06-13.54 13.54-13.54z" fill="#f66"/><path d="m334.28 205.52v115.13h-78.28v-128.67h64.74c7.48 0 13.54 6.06 13.54 13.54z" fill="#e62e6b"/><g><path d="m256 191.98 12 55.667-12 73.003h-15v-128.67z" fill="#e62e6b"/></g><g><path d="m256 191.98h15v128.67h-15z" fill="#b32453"/></g><path d="m418.083 122.003c-22.379 0-40.521-18.142-40.521-40.521v-62.458h71.042c5.523 0 10 4.477 10 10v52.458c0 22.379-18.142 40.521-40.521 40.521z" fill="#8bb9ff"/></g></svg>