<svg id="Capa_1" enable-background="new 0 0 512 512" height="512" viewBox="0 0 512 512" width="512" xmlns="http://www.w3.org/2000/svg"><g><g><path d="m107.4 0c-19.3 0-35 15.7-35 35v442c0 19.3 15.7 35 35 35h148.6l25-256-25-256z" fill="#ecf2ff"/></g><g><path d="m404.6 0h-148.6v512h148.6c19.3 0 35-15.7 35-35v-442c0-19.3-15.7-35-35-35z" fill="#d9e5ff"/></g><g fill="#9ddff6"><path d="m159.667 141.358h74c8.284 0 15-6.716 15-15s-6.716-15-15-15h-74c-8.284 0-15 6.716-15 15s6.715 15 15 15z"/><path d="m159.667 230.024h74c8.284 0 15-6.716 15-15s-6.716-15-15-15h-74c-8.284 0-15 6.716-15 15s6.715 15 15 15z"/><path d="m256 288.69v30h-96.33c-8.29 0-15-6.71-15-15 0-8.28 6.71-15 15-15z"/><path d="m256 377.36v30h-96.33c-8.29 0-15-6.72-15-15 0-8.29 6.71-15 15-15z"/></g><path d="m297.83 303.69c0 8.29-6.71 15-15 15h-26.83v-30h26.83c8.29 0 15 6.72 15 15z" fill="#8bb9ff"/><path d="m367.33 392.36c0 8.28-6.71 15-15 15h-96.33v-30h96.33c8.29 0 15 6.71 15 15z" fill="#8bb9ff"/><path d="m339.124 174.889c-9.868-3.488-20.746-7.675-26.613-12.276-.63-.494-1.243-2.568-.751-5.177.252-1.336 1.411-5.797 5.749-7.104 4.98-1.5 10.962.031 15.808 2.024 5.875 2.416 12.639.792 16.892-3.926 6.723-7.459 4.507-19.348-4.525-23.736-2.965-1.441-5.833-2.647-8.167-3.328v-1.3c0-8.077-6.207-15.027-14.275-15.407-8.614-.406-15.725 6.458-15.725 14.983v2.422c-12.969 4.451-22.586 15.739-25.239 29.817-2.547 13.514 1.943 26.671 11.718 34.338 9.256 7.26 22.354 12.439 35.129 16.956 7.926 2.802 8.731 8.497 8.011 12.782-1.03 6.126-6.186 12.747-15.071 12.806-10.083.062-12.82-.336-20.123-5.072-6.75-4.377-15.906-3.046-20.657 3.446-5.116 6.991-3.276 16.748 3.881 21.43 8.41 5.501 15.018 8.134 22.352 9.32v.174c0 8.077 6.207 15.027 14.275 15.407 8.614.406 15.725-6.458 15.725-14.983v-2.381c16.331-5.88 26.757-20.621 29.204-35.173 3.444-20.488-7.647-38.99-27.598-46.042z" fill="#8bb9ff"/></g></svg>