<svg id="Capa_1" enable-background="new 0 0 512 512" height="512" viewBox="0 0 512 512" width="512" xmlns="http://www.w3.org/2000/svg"><g><g><path d="m359.04 160.696 13.293 138.91-13.293 137.666h-137.96c-8.28 0-15-6.72-15-15v-259.726c0-8.28 6.72-15 15-15h63.42l.06.01 73.94 13.24z" fill="#fe9"/><path d="m512 162.546v259.727c0 8.28-6.71 15-15 15h-137.96v-276.577l74.49-13.11.22-.04h63.25c8.29 0 15 6.72 15 15z" fill="#fc6"/><path d="m359.04 147.546 12.627 52.727-12.627 46.41-53.92 21.52c-9.849 3.923-20.56-3.315-20.56-13.93v-106.727z" fill="#9ddff6"/><path d="m433.53 147.546v106.727c0 10.666-10.817 17.849-20.56 13.93l-53.93-21.52v-99.137z" fill="#8bb9ff"/></g><g><path d="m359.04 192.438-57.2-3.79-202.84 19.96-99-36.36v-47.89c0-5.87 4.77-10.63 10.64-10.63h115.93l15.05-8.35c47.78-26.5 103.6-37.8 156.93-25.97l60.49 13.4 22.63 49.47z" fill="#ffbda9"/><g fill="#ffa68c"><path d="m281.393 139.934c-7.579-1.689-15.784-.443-22.806 3.925l-45.346 28.39h-213.241v84.586c0 5.872 4.765 10.637 10.637 10.637h96.138c46.229 13.403 69.386 1.255 98.669-17.402l8.691-5.531 77.044-49.09c.106-.064.213-.138.319-.213 22.551-14.721 16.296-49.451-10.105-55.302z"/><path d="m512 161.038c0-17.81-12.33-33.86-30.44-37.87l-79.57-20.84-42.95-9.52v99.63l111.54 7.4c19.14 1.28 36.34-11.61 40.49-30.34.63-2.84.93-5.67.93-8.46z"/></g></g></g></svg>