<svg id="Capa_1" enable-background="new 0 0 512 512" height="512" viewBox="0 0 512 512" width="512" xmlns="http://www.w3.org/2000/svg"><g><path d="m116.155.36-.53-.23h-85.657c-16.523 0-29.968 13.445-29.968 29.968v330.991c0 16.534 13.445 29.978 29.968 29.978h165.495l22.451-233.069-22.45-123.681z" fill="#ecf2ff"/><path d="m360.959.13h-86.066l-.12.05-79.179 34.197-.13-.06v356.751h165.495c16.524 0 29.968-13.445 29.968-29.978v-330.992c0-16.523-13.444-29.968-29.968-29.968z" fill="#d9e5ff"/><path d="m195.464.13 19.452 41.914-19.452 54.769-58.727 23.591c-9.831 3.937-20.582-3.305-20.582-13.915v-106.359z" fill="#9ddff6"/><path d="m274.773.13v106.358c0 10.497-10.619 17.878-20.582 13.915l-58.727-23.591v-96.682z" fill="#8bb9ff"/><g><g><g><path d="m165.426 228.661h-89.181c-8.281 0-14.994-6.713-14.994-14.994s6.713-14.994 14.994-14.994h89.181c8.281 0 14.994 6.713 14.994 14.994s-6.713 14.994-14.994 14.994z" fill="#9ddff6"/></g><g><path d="m136.152 303.199h-59.907c-8.281 0-14.994-6.713-14.994-14.994s6.713-14.994 14.994-14.994h59.907c8.281 0 14.994 6.713 14.994 14.994s-6.713 14.994-14.994 14.994z" fill="#9ddff6"/></g></g></g><path d="m366.687 221.254 24.827 89.685-24.827 200.931c-80.119 0-145.303-65.185-145.303-145.313 0-80.119 65.184-145.303 145.303-145.303z" fill="#fe9"/><path d="m512 366.557c0 80.129-65.185 145.313-145.313 145.313v-290.616c80.128 0 145.313 65.184 145.313 145.303z" fill="#fc6"/><g><path d="m366.687 357.13 10.166 12.285-10.166 25.33-11.896 8.996c-6.552 4.932-15.813 3.709-20.852-2.709l-24.79-31.638c-5.108-6.517-3.958-15.934 2.559-21.042s15.934-3.968 21.052 2.549l15.694 20.022z" fill="#9ddff6"/></g><g><path d="m421.465 353.302-54.779 41.444v-37.616l36.696-27.749c6.597-4.988 16.004-3.689 21.002 2.919 4.988 6.598 3.689 16.004-2.919 21.002z" fill="#8bb9ff"/></g></g></svg>