<svg id="Capa_1" enable-background="new 0 0 512 512" height="512" viewBox="0 0 512 512" width="512" xmlns="http://www.w3.org/2000/svg"><g><path d="m473.61 244.557-21.579-95.255c-2.599-11.473-12.63-19.486-24.394-19.486h-91.473c-8.288 0-15.007 6.719-15.007 15.007v103.05c0 8.288 6.719 15.007 15.007 15.007h122.81c4.563 0 8.877-2.076 11.725-5.64 2.849-3.565 3.919-8.232 2.911-12.683z" fill="#ecf2ff"/><path d="m476.983 232.866h-140.819c-8.288 0-15.007 6.719-15.007 15.007v123.06c0 8.288 6.719 15.007 15.007 15.007h140.819c19.308 0 35.017-15.709 35.017-35.017v-83.041c0-19.307-15.709-35.016-35.017-35.016z" fill="#9ddff6"/><path d="m175.556 86.581-79.259-16.794h-61.28c-19.309 0-35.017 15.707-35.017 35.017v246.12c0 19.299 15.708 35.017 35.017 35.017h140.569l18.259-153.955-18.259-145.051c0-1.121-.01.757-.03-.354z" fill="#9ddff6"/><path d="m351.171 104.804v266.13c0 8.284-6.723 15.007-15.007 15.007h-160.578v-299.006c0-1.121-.01-2.231-.03-3.342l79.409-13.767.24-.04h60.95c19.309.001 35.016 15.708 35.016 35.018z" fill="#8bb9ff"/><circle cx="409.45" cy="370.929" fill="#17324d" r="71.285"/><circle cx="104.259" cy="370.929" fill="#284866" r="71.285"/><g><g><g><path d="m275.552 251.328h-60.755c-8.288 0-15.007-6.719-15.007-15.007s6.719-15.007 15.007-15.007h60.755c8.288 0 15.007 6.719 15.007 15.007s-6.719 15.007-15.007 15.007z" fill="#17324d"/></g><g><path d="m275.552 319.619h-40.813c-8.288 0-15.007-6.719-15.007-15.007s6.719-15.007 15.007-15.007h40.813c8.288 0 15.007 6.719 15.007 15.007s-6.719 15.007-15.007 15.007z" fill="#17324d"/></g></g></g><g><path d="m174.785 69.787h-78.578v106.442c0 4.982 2.471 9.645 6.603 12.436s9.375 3.342 13.997 1.491l58.779-23.601 16.258-47.623z" fill="#fe9"/></g><g><path d="m174.785 69.787c.43 4.432.69 9.054.77 13.807.02 1.111.03 2.221.03 3.342v79.619l58.779 23.601c9.895 3.958 20.6-3.341 20.6-13.927v-106.442z" fill="#fc6"/></g></g></svg>