<svg id="Capa_1" enable-background="new 0 0 512 512" height="512" viewBox="0 0 512 512" width="512" xmlns="http://www.w3.org/2000/svg"><g><path d="m73.333 264v106.939h21.727c41.572 0 75.273-33.701 75.273-75.273z" fill="#e62e6b"/><g><path d="m322.639 36.476v165.805l-132.17 25.027-118.432-25.027 30.943-86.551 150.787-54.408 67.855-24.483z" fill="#ecf2ff"/><path d="m322.639 202.281v164.445l-1.017-.363-67.855-23.838-150.787-52.977-30.943-87.267z" fill="#d9e5ff"/><path d="m51.489 481.41c-19.43 0-35.181-15.751-35.181-35.181v-275.701h70.362v275.701c0 19.43-15.751 35.181-35.181 35.181z" fill="#284866"/><path d="m102.98 114.692v87.589l-51.606 17.972-51.374-17.972v-76.129c0-6.33 5.13-11.46 11.46-11.46z" fill="#00aa95"/><path d="m102.98 202.281v86.229h-91.52c-6.33 0-11.46-5.13-11.46-11.46v-74.769z" fill="#00aa95"/><path d="m416.901 202.18v.101l-57.099 17.3-52.282-17.3v-67.007c0-8.315 6.723-15.069 15.018-15.119h12.327c45.237 0 82.036 36.799 82.036 82.025z" fill="#fc6"/><path d="m416.901 202.281v.091c0 45.226-36.799 82.026-82.036 82.026h-12.327c-8.295-.05-15.018-6.804-15.018-15.119v-66.997h109.381z" fill="#ffa64d"/><path d="m512 202.281-30.574 5.54-29.398-5.54c0-8.356 6.773-15.119 15.119-15.119h29.734c8.346 0 15.119 6.763 15.119 15.119z" fill="#fc6"/><path d="m512 202.281c0 8.346-6.773 15.119-15.119 15.119h-29.734c-8.346 0-15.119-6.773-15.119-15.119z" fill="#ffa64d"/><path d="m417.073 99.397c3.869 0 7.739-1.476 10.691-4.428l21.025-21.026c5.905-5.905 5.904-15.477 0-21.381-5.904-5.906-15.477-5.904-21.381 0l-21.025 21.026c-5.905 5.905-5.904 15.477 0 21.381 2.951 2.953 6.821 4.428 10.69 4.428z" fill="#fc6"/><path d="m427.764 309.585c-5.904-5.906-15.477-5.904-21.381 0s-5.905 15.476 0 21.381l21.025 21.026c2.952 2.953 6.821 4.428 10.691 4.428 3.868 0 7.739-1.476 10.691-4.428 5.904-5.904 5.905-15.476 0-21.381z" fill="#fc6"/><g fill="#00aa95"><path d="m326.57 41.163v161.118l-32.284 15.956-36.487-15.956v-161.118c0-5.836 4.737-10.573 10.583-10.573h47.615c4.294 0 7.993 2.57 9.656 6.249.585 1.32.917 2.782.917 4.324z"/><path d="m326.57 202.281v159.757c0 1.542-.333 3.004-.917 4.324-1.653 3.689-5.362 6.249-9.656 6.249h-47.615c-5.846 0-10.583-4.727-10.583-10.573v-159.757z"/></g></g></g></svg>