<svg id="Capa_1" enable-background="new 0 0 512 512" height="512" viewBox="0 0 512 512" width="512" xmlns="http://www.w3.org/2000/svg"><g><path d="m212.442 0 35 216.333-35 164.297-87 23.703-81.9-23.703v-348.76c0-17.64 14.24-31.87 31.87-31.87z" fill="#ecf2ff"/><path d="m381.342 31.87v348.76h-168.9v-380.63h137.03c17.63 0 31.87 14.23 31.87 31.87z" fill="#d9e5ff"/><path d="m212.442 380.63 20.333 61.037-20.333 70.333h-137.03c-17.63 0-31.87-14.23-31.87-31.87v-99.5z" fill="#9ddff6"/><path d="m381.342 380.63v99.5c0 17.64-14.24 31.87-31.87 31.87h-137.03v-131.37z" fill="#8bb9ff"/><g><path d="m212.442 431.32 9 15.68-9 14.32h-22.84c-8.28 0-15-6.72-15-15 0-8.29 6.72-15 15-15z" fill="#284866"/></g><g><path d="m250.282 446.32c0 8.28-6.72 15-15 15h-22.84v-30h22.84c8.28 0 15 6.71 15 15z" fill="#17324d"/></g><path d="m468.458 79.168v229.994c0 5.875-4.759 10.623-10.623 10.623h-245.393v-251.24h245.393c5.864 0 10.623 4.748 10.623 10.623z" fill="#00dd80"/><path d="m404.719 174.765v38.801c-23.466 0-42.492 19.015-42.492 42.492h-149.785v-123.786h149.785c0 23.477 19.026 42.493 42.492 42.493z" fill="#00aa95"/></g></svg>