<svg id="Capa_1" enable-background="new 0 0 512 512" height="512" viewBox="0 0 512 512" width="512" xmlns="http://www.w3.org/2000/svg"><g><path d="m302.796 22.62h-268.421c-18.955 0-34.375 15.421-34.375 34.376v172.549c0 18.955 15.42 34.375 34.375 34.375h34.336v45.556c0 21.507 26.184 32.356 41.553 17.212l63.687-62.768h128.845c18.955 0 34.375-15.42 34.375-34.375v-172.549c0-18.955-15.421-34.376-34.375-34.376z" fill="#9ddff6"/><path d="m337.171 166.722 25.725 119.583-25.725 130.782h-138.995c-19.761 0-35.835-16.074-35.835-35.835v-178.705c0-19.75 16.074-35.825 35.835-35.825z" fill="#fe9"/><path d="m512 202.547v178.706c0 19.761-16.074 35.835-35.835 35.835h-16.134v46.944c0 22.534-27.437 33.754-43.428 17.992l-65.886-64.937h-13.547v-250.365h138.994c19.762 0 35.836 16.074 35.836 35.825z" fill="#fc6"/><g fill="#ecf2ff"><path d="m258.498 84.249h-179.825c-8.276 0-14.985 6.709-14.985 14.985s6.709 14.985 14.985 14.985h179.824c8.276 0 14.985-6.709 14.985-14.985s-6.708-14.985-14.984-14.985z"/><path d="m116.802 154.181h-38.129c-8.276 0-14.985 6.709-14.985 14.985s6.709 14.985 14.985 14.985h38.129c8.276 0 14.985-6.709 14.985-14.985.001-8.276-6.708-14.985-14.985-14.985z"/></g><path d="m260.246 306.887c-8.276 0-14.985-6.709-14.985-14.985 0-8.276 6.709-14.985 14.985-14.985 8.276 0 14.985 6.709 14.985 14.985 0 8.276-6.709 14.985-14.985 14.985z" fill="#9ddff6"/><path d="m414.096 306.887c-8.276 0-14.985-6.709-14.985-14.985 0-8.276 6.709-14.985 14.985-14.985 8.276 0 14.985 6.709 14.985 14.985 0 8.276-6.709 14.985-14.985 14.985z" fill="#8bb9ff"/><path d="m337.171 276.914 7.742 14.885-7.742 15.085c-8.272 0-14.985-6.703-14.985-14.985 0-4.136 1.678-7.882 4.386-10.59 2.716-2.716 6.463-4.395 10.599-4.395z" fill="#9ddff6"/><path d="m352.156 291.9c0 4.136-1.678 7.892-4.386 10.6-2.717 2.707-6.464 4.386-10.6 4.386v-29.971c4.136 0 7.882 1.678 10.6 4.396 2.708 2.706 4.386 6.453 4.386 10.589z" fill="#8bb9ff"/></g></svg>