<svg id="Capa_1" enable-background="new 0 0 512 512" height="512" viewBox="0 0 512 512" width="512" xmlns="http://www.w3.org/2000/svg"><g><path d="m261.361 69.917c-28.825-15.142-55.891-18.157-80.45-8.957-40.674 15.235-57.959 58.738-58.675 60.582-2.743 7.065.221 15.067 6.905 18.64 1.301.696 24.68 12.963 53.401 12.963 9.793 0 20.213-1.428 30.583-5.227 24.625-9.021 43.196-28.941 55.197-59.208 2.825-7.123-.179-15.229-6.961-18.793z" fill="#007579"/><path d="m358.948 317.283c-8.277 0-14.988-6.71-14.988-14.988v-37.924c0-35.974 17.982-69.193 48.103-88.863 6.93-4.525 16.218-2.577 20.743 4.355 4.526 6.931 2.576 16.218-4.355 20.744-21.613 14.113-34.516 37.951-34.516 63.764v37.924c0 8.278-6.71 14.988-14.987 14.988z" fill="#00aa95"/><g><path d="m136.674 156.12c-8.277 0-14.988-6.71-14.988-14.988v-49.617c0-35.973 17.982-69.192 48.102-88.863 6.931-4.527 16.218-2.576 20.743 4.354 4.526 6.931 2.577 16.218-4.354 20.744-21.613 14.114-34.517 37.952-34.517 63.764v49.618c.001 8.278-6.709 14.988-14.986 14.988z" fill="#00aa95"/></g><g><path d="m358.948 288.464 21.066 87.77-21.066 135.554h-64.586c-.709 0-1.419-.05-2.128-.15-17.206-2.458-32.473-10.971-42.984-23.97-21.872-27.047-35.66-55.484-40.966-84.54-4.736-25.918-2.398-51.657 6.764-74.438 14.318-35.611 43.684-60.32 76.626-64.486 24.729-3.127 48.11 5.416 67.274 24.26z" fill="#f66"/></g><path d="m509.613 403.129c-5.306 29.056-19.094 57.492-40.966 84.54-10.052 12.43-24.21 20.903-39.867 23.86-.919.17-1.848.26-2.788.26h-67.044v-223.325c19.164-18.844 42.545-27.387 67.274-24.26 32.943 4.166 62.308 28.876 76.626 64.486 9.162 22.782 11.501 48.52 6.765 74.439z" fill="#e62e6b"/><path d="m135.373 511.789c-1.759 0-3.527-.03-5.286-.1-34.771-1.329-67.354-15.917-91.764-41.066-24.39-25.139-37.998-58.142-38.318-92.943-.27-29.136 8.573-56.973 25.579-80.503 6.615-9.152 8.643-21.292 5.425-32.473-2.788-9.722-4.206-19.823-4.206-30.015 0-29.286 11.49-56.743 32.343-77.306 20.443-20.163 47.381-31.214 76.047-31.274l29.261 180.345z" fill="#00dd80"/><path d="m270.771 376.401c0 37.149-14.738 71.79-41.515 97.559-25.459 24.509-58.601 37.828-93.802 37.828h-.08c-.01-64.946-.07-269.946-.18-385.679.57 0 1.139 0 1.719.01 59.041.819 107.071 49.529 107.051 108.6-.01 10.162-1.419 20.213-4.187 29.895-3.217 11.25-1.189 23.44 5.435 32.613 16.726 23.151 25.559 50.528 25.559 79.174z" fill="#00aa95"/></g></svg>