<svg id="Capa_1" enable-background="new 0 0 512 512" height="512" viewBox="0 0 512 512" width="512" xmlns="http://www.w3.org/2000/svg"><g><path d="m256 87.81 28 163.19-28 173h-145.71c-8.28 0-15-6.72-15-15v-306.19c0-8.28 6.72-15 15-15z" fill="#f66"/><path d="m416.71 102.81v306.19c0 8.28-6.72 15-15 15h-145.71v-336.19h145.71c8.28 0 15 6.72 15 15z" fill="#e62e6b"/><path d="m256 0 17 56-17 61.82h-170.5c-13.79 0-25-11.22-25-25v-67.82c0-13.79 11.21-25 25-25z" fill="#fe9"/><path d="m451.5 25v67.82c0 13.78-11.21 25-25 25h-170.5v-117.82h170.5c13.79 0 25 11.21 25 25z" fill="#fc6"/><path d="m256 394.18 17 59.82-17 58h-170.5c-13.79 0-25-11.21-25-25v-67.82c0-13.78 11.21-25 25-25z" fill="#fe9"/><path d="m451.5 419.18v67.82c0 13.79-11.21 25-25 25h-170.5v-117.82h170.5c13.79 0 25 11.22 25 25z" fill="#fc6"/><path d="m256 238.91 14 45.09-14 48.91c-25.96 0-47-21.05-47-47 0-25.96 21.04-47 47-47z" fill="#fc6"/><path d="m303 285.91c0 25.95-21.04 47-47 47v-94c25.96 0 47 21.04 47 47z" fill="#ffa64d"/><path d="m256 156.41 11 30.59-11 29.41c-16.57 0-30-13.44-30-30 0-16.57 13.43-30 30-30z" fill="#fc6"/><path d="m286 186.41c0 16.56-13.43 30-30 30v-60c16.57 0 30 13.43 30 30z" fill="#ffa64d"/><g><circle cx="177.688" cy="232.406" fill="#fc6" r="30"/></g><g><circle cx="334.313" cy="232.406" fill="#ffa64d" r="30"/></g></g></svg>