<svg id="Capa_1" enable-background="new 0 0 512 512" height="512" viewBox="0 0 512 512" width="512" xmlns="http://www.w3.org/2000/svg"><g><path d="m129.748 70.971 33.751 210.004-33.751 230.945h-102.252c-11.05 0-20-8.96-20-20v-118.443l25-81.502-25-75.471 24.55-122.512z" fill="#ecf2ff"/><path d="m252.05 216.504-20.05 78.972 20.05 79.002v117.442c0 11.04-8.96 20-20 20h-102.302v-440.949l97.752 23.02z" fill="#d9e5ff"/><path d="m129.748 0 24.75 47.971-24.75 46.021h-97.702v-73.992c0-11.04 8.95-20 20-20z" fill="#9ddff6"/><path d="m227.499 20v73.991h-97.752v-93.991h77.752c11.05 0 20 8.96 20 20z" fill="#8bb9ff"/><path d="m129.748 216.504 20.75 73.472-20.75 84.501h-122.253v-157.973z" fill="#9ddff6"/><path d="m129.748 216.504h122.252v157.973h-122.252z" fill="#8bb9ff"/><path d="m342.582 158.463c-5.61 0-10.75 3.13-13.33 8.12l-2.63 5.1-18 34.871c-3.66 7.07-5.59 15.01-5.59 22.98v247.465c0 19.3 15.7 35.001 35.001 35.001h65.741l19.73-192.357-19.73-161.18z" fill="#ecf2ff"/><path d="m498.925 206.564-18.01-34.881-2.63-5.1c-2.58-4.99-7.72-8.12-13.33-8.12h-61.181v115.302 122.942 115.293h65.731c19.3 0 35.001-15.7 35.001-35.001v-77.272l-22.667-65.751 22.667-63.126v-41.316c-.001-7.97-1.931-15.91-5.581-22.97z" fill="#d9e5ff"/><g><path d="m403.383 66.461h-60.801c-14.43 0-26.181 11.75-26.181 26.18v58.311c0 8.43 4.01 15.94 10.22 20.73 4.42 3.41 9.95 5.44 15.96 5.44h61.191l13.064-54.818c0-5.869-13.193-50.043-13.453-55.843z" fill="#9ddff6"/></g><g><path d="m464.954 66.461h-61.571c.26 5.8.39 11.67.39 17.54v93.122h61.181c6 0 11.54-2.03 15.96-5.44 6.21-4.79 10.22-12.3 10.22-20.73v-58.311c0-14.431-11.739-26.181-26.18-26.181z" fill="#8bb9ff"/></g><g><path d="m431.222 270.735c-15.14 0-27.46 12.32-27.46 27.451v74.092c0 15.14 12.32 27.461 27.46 27.461h73.283v-129.004z" fill="#8bb9ff"/></g></g></svg>