<svg id="Capa_1" enable-background="new 0 0 512 512" height="512" viewBox="0 0 512 512" width="512" xmlns="http://www.w3.org/2000/svg"><g><path d="m256 330.8 20 75.2-20 106h-47.69c-9.5 0-18.11-5.96-21.42-14.84-4.7-12.57-12.78-22.34-22.5-29.93l-18.39-76.73 18.39-59.7z" fill="#fe9"/><path d="m376 394-28.39 73.23c-9.72 7.59-17.8 17.36-22.5 29.93-3.31 8.88-11.92 14.84-21.42 14.84h-47.69v-181.2h91.61z" fill="#fc6"/><path d="m256 205.13 21 50.87-21 41.08h-115.42c-17.06 0-30.95-13.89-30.95-30.96v-45.99c0-8.29 6.72-15 15-15z" fill="#9ddff6"/><path d="m402.37 220.13v45.99c0 17.07-13.89 30.96-30.95 30.96h-115.42v-91.95h131.37c8.28 0 15 6.71 15 15z" fill="#8bb9ff"/><path d="m256 129.2c-4.74 0-9.07-1.94-12.19-5.48-23.66-26.81-51.71-42.03-83.36-45.23-.5-.05-1.01-.08-1.51-.08h-69.71v-63.41c0-8.284-6.716-15-15-15s-15 6.716-15 15v78.41 77.47c0 30.75 21.59 56.54 50.4 63.02 4.56 1.03 9.31 1.57 14.18 1.57h132.19l22-58.47z" fill="#fe9"/><path d="m437.77 0c-8.284 0-15 6.716-15 15v63.41h-69.71c-.5 0-1.01.03-1.51.08-31.65 3.2-59.7 18.42-83.37 45.24-3.11 3.53-7.44 5.47-12.18 5.47v106.27h132.19c4.87 0 9.62-.54 14.18-1.57 28.81-6.48 50.4-32.27 50.4-63.02v-77.47-78.41c0-8.284-6.716-15-15-15z" fill="#fc6"/><g><path d="m164.39 330.8v136.43c-27.07-21.13-66.83-25.38-81.47-26.23-6.96-.4-13.27-3.88-17.33-9.54-4.04-5.66-5.3-12.75-3.43-19.46l17.95-64.45c2.75-9.86 11.82-16.75 22.06-16.75z" fill="#9ddff6"/></g><g><path d="m446.41 431.46c-4.06 5.66-10.37 9.14-17.33 9.54-14.64.85-54.4 5.1-81.47 26.23v-136.43h62.22c10.24 0 19.31 6.89 22.06 16.75l17.95 64.46c1.87 6.7.61 13.79-3.43 19.45z" fill="#8bb9ff"/></g></g></svg>