<svg id="Capa_1" enable-background="new 0 0 512.06 512.06" height="512" viewBox="0 0 512.06 512.06" width="512" xmlns="http://www.w3.org/2000/svg"><g><g><path d="m410.561 179.512c-7.712-3.024-11.513-11.729-8.488-19.441l33.333-85c1.471-3.751 4.39-6.752 8.098-8.328l47.667-20.261c7.623-3.237 16.432.313 19.672 7.937 3.24 7.625-.313 16.433-7.938 19.673l-41.869 17.797-31.033 79.136c-3.024 7.707-11.724 11.512-19.442 8.487z" fill="#ffa64d"/></g><g><path d="m308.368 156.88c-19.3 0-35 15.7-35 35v285.17c0 19.3 15.7 35 35 35h84.32l24.35-181.17-24.35-174z" fill="#f66"/></g><g><path d="m476.998 156.88h-84.31v355.17h84.31c19.3 0 35-15.7 35-35v-285.17c0-19.3-15.7-35-35-35z" fill="#e62e6b"/></g><path d="m121.538 52.02 26.5 233.86-26.5 202.47c-3.96 0-7.92 1.19-11.31 3.58l-17.65 12.45c-14.53 10.23-34.05 10.23-48.58.01l-23.19-16.36c-13.01-9.17-20.77-24.16-20.77-40.08-.01-7.98-.02-28.45-.02-54.07l59.52-97-59.5-76.12c0-.43 0-.92.01-1.46-.01-.14-.01-.28-.01-.42v-.36c.04-31.03 15.2-60.27 40.56-78.23 22.806-16.149 35.71-42.117 35.71-68.88v-4.39c0-8.28 6.71-15 15-15h30.23z" fill="#fe9"/><path d="m243.068 447.94v.01c0 15.92-7.77 30.9-20.79 40.08l-23.19 16.35c-7.26 5.12-15.78 7.68-24.29 7.68s-17.02-2.56-24.28-7.68l-17.66-12.45c-3.38-2.39-7.35-3.58-11.32-3.58v-436.33h30.25c8.28 0 15 6.72 15 15 0 5.693-.369 15.63 3.63 28.77 5.37 17.75 16.55 33.51 32.07 44.5 25.4 17.99 40.57 47.29 40.57 78.37l-.14.22-48.55 78 47.87 97 .82 1.67c0 47.325-.003 36.838.01 52.39z" fill="#fc6"/><path d="m121.538 0 17.5 48.88-17.5 48.85c-42.241 0-42.55.582-48.86-1.93-10.26-4.05-17.54-14.07-17.54-25.75v-42.36c0-15.27 12.42-27.69 27.69-27.69z" fill="#9ddff6"/><path d="m187.948 27.69v42.36c0 15.413-12.589 27.68-27.68 27.68h-38.73v-97.73h38.73c15.26 0 27.68 12.42 27.68 27.69z" fill="#8bb9ff"/><path d="m121.538 218.88 22.5 73-22.5 102h-121.52c0-21.7.01-47.1.01-71.72l.01-101.4c0-.43 0-.92.01-1.46-.01-.14-.01-.28-.01-.42z" fill="#9ddff6"/><path d="m121.538 218.88h121.52v175h-121.52z" fill="#8bb9ff"/><g><path d="m334.058 334.46c0 32.33 26.3 58.63 58.63 58.63l12.35-62.21-12.35-55.04c-32.33 0-58.63 26.3-58.63 58.62z" fill="#fe9"/></g><g><path d="m392.688 275.84v117.25c32.32 0 58.62-26.3 58.62-58.63 0-32.32-26.3-58.62-58.62-58.62z" fill="#fc6"/></g></g></svg>