<svg id="Capa_1" enable-background="new 0 0 511.99 511.99" height="512" viewBox="0 0 511.99 511.99" width="512" xmlns="http://www.w3.org/2000/svg"><g><path d="m255.995 64h-180c-8.28 0-15 6.72-15 15v48.66c0 18.6 8.12 36.19 22.27 48.26 3.69 3.14 6.61 6.99 8.66 11.43 1.968 4.26 2.764 5.457 3.054 17.971l15.349 44.341-15.333 60.988c0 9.8-4.28 19.07-11.74 25.43-7.02 5.99-12.54 13.28-16.43 21.69-3.87 8.39-5.83 17.33-5.83 26.57v48.65c0 8.28 6.72 15 15 15h180l30-196.99z" fill="#00dd80"/><g fill="#00aa95"><path d="m255.995 0 19 49-19 45h-195v-69c0-13.81 11.19-25 25-25z"/><path d="m255.995 418 26 46-26 47.99h-170c-13.81 0-25-11.19-25-25v-68.99z"/><path d="m450.995 79v48.66c0 9.12-2.02 18.31-5.83 26.57-3.9 8.42-9.43 15.71-16.44 21.69-7.45 6.35-11.73 15.62-11.73 25.42v3.655l-27.333 48.667 27.333 52.667v4.322c0 4.88 1.03 9.59 3.07 14.01 2.05 4.42 4.97 8.27 8.66 11.41 14.16 12.09 22.27 29.68 22.27 48.27v48.65c0 8.28-6.72 15-15 15h-180v-383.991h180c8.28 0 15 6.72 15 15z"/></g><path d="m450.995 25v69h-195v-94h170c13.81 0 25 11.19 25 25z" fill="#007579"/><path d="m450.995 418v68.99c0 13.81-11.19 25-25 25h-170v-93.99z" fill="#007579"/><path d="m255.995 205 19 52-19 50h-161v-102z" fill="#f66"/><path d="m255.995 205h161v102h-161z" fill="#e62e6b"/><path d="m255.995 166.08 15 83.92-15 95.92c-30.66 0-57.78-15.42-74.01-38.92-10.04-14.5-15.91-32.08-15.91-51s5.87-36.5 15.91-51c16.23-23.5 43.35-38.92 74.01-38.92z" fill="#fe9"/><path d="m345.915 256c0 18.92-5.87 36.5-15.91 51-16.23 23.5-43.35 38.92-74.01 38.92v-179.84c30.66 0 57.78 15.42 74.01 38.92 10.04 14.5 15.91 32.08 15.91 51z" fill="#fc6"/></g></svg>