<svg id="Capa_1" enable-background="new 0 0 512.001 512.001" height="512" viewBox="0 0 512.001 512.001" width="512" xmlns="http://www.w3.org/2000/svg"><g><path d="m366.4 162.645c-80.15 0-145.36 65.21-145.36 145.37 0 80.15 65.21 145.36 145.36 145.36l14.6-150.936z" fill="#fe9"/><g fill="#fc6"><path d="m511.76 308.015c0 80.15-65.21 145.36-145.36 145.36v-290.73c80.15 0 145.36 65.21 145.36 145.37z"/><path d="m356.06 281.565c2.62 2.06 6.25 4.04 10.34 5.9l10.6 18.64-10.6 13.74c-10.68-3.99-21.11-8.61-28.86-14.68-21.165-16.594-14.388-54.575 13.52-64.15v-2.42c0-8.4 6.9-15.18 15.34-14.99v45.41c-12.151-1.55-12.3 11.02-10.34 12.55z"/><path d="m366.4 347.695 9.6 23.41-9.6 21.32c-.35.01-.7.01-1.06-.01-8.07-.38-14.28-7.33-14.28-15.4v-.18c-7.33-1.18-13.94-3.82-22.35-9.32-6.93-4.53-8.88-13.83-4.34-20.76 4.53-6.94 13.83-8.88 20.76-4.34 6.519 4.263 9.846 5.731 21.27 5.28z"/></g><path d="m382.02 274.895c-4.84-2.63-10.66-5.23-15.62-5.88v-45.41c.13 0 .26 0 .39.01 8.07.38 14.27 7.33 14.27 15.4v1.3c3.68 1.07 10.05 4.57 16.11 8.28 8.072 4.96 9.683 16.038 3.32 23.1-4.69 5.19-12.32 6.53-18.47 3.2z" fill="#ffa64d"/><path d="m410.27 339.885c-2.45 14.55-12.88 29.29-29.21 35.17v2.38c0 8.17-6.53 14.82-14.66 14.99v-44.73c8.41-.44 13.28-6.84 14.28-12.79 1.783-10.6-7.18-12.376-14.28-15.06v-32.38c5.05 2.31 10.81 4.45 16.27 6.38 19.95 7.05 31.04 25.55 27.6 46.04z" fill="#ffa64d"/><path d="m366.4 78.335 25.6 47.77-25.6 50.72-7.36-.49-57.2-3.79-202.84 19.96-99-36.36v-47.89c0-5.87 4.77-10.63 10.64-10.63h115.93l15.05-8.35c47.78-26.5 103.6-37.8 156.93-25.97 8.453 1.873 57.248 12.682 67.85 15.03z" fill="#ffbda9"/><path d="m281.393 123.827c-7.579-1.689-15.784-.443-22.806 3.925l-45.346 28.39h-213.241v84.586c0 5.872 4.765 10.637 10.637 10.637h96.138c46.229 13.403 69.386 1.255 98.669-17.402l8.691-5.531 77.044-49.09c.106-.064.213-.138.319-.213 22.551-14.721 16.296-49.451-10.105-55.302z" fill="#ffa68c"/><path d="m511.07 153.395c-4.15 18.73-21.35 31.62-40.49 30.34l-104.18-6.91v-98.49l35.59 7.89 79.57 20.84c20.946 4.638 34.157 25.379 29.51 46.33z" fill="#ffa68c"/></g></svg>